RobotoA2-XOPQ310.ufo
<glyph name="exclam" format="2">
  <advance width="1002"/>
  <unicode hex="0021"/>
  <outline>
    <contour>
      <point x="186" y="250" type="qcurve" smooth="yes"/>
      <point x="186" y="375"/>
      <point x="349" y="553"/>
      <point x="501" y="553" type="qcurve" smooth="yes"/>
      <point x="654" y="553"/>
      <point x="816" y="375"/>
      <point x="816" y="250" type="qcurve" smooth="yes"/>
      <point x="816" y="126"/>
      <point x="654" y="-52"/>
      <point x="501" y="-52" type="qcurve" smooth="yes"/>
      <point x="349" y="-52"/>
      <point x="186" y="126"/>
    </contour>
    <contour>
      <point x="419" y="567" type="line"/>
      <point x="204" y="1456" type="line"/>
      <point x="798" y="1456" type="line"/>
      <point x="583" y="567" type="line"/>
    </contour>
  </outline>
</glyph>
<glyph name="three" format="2">
  <advance width="1968"/>
  <unicode hex="0033"/>
  <outline>
    <contour>
      <point x="80" y="380" type="qcurve" smooth="yes"/>
      <point x="80" y="390" type="line"/>
      <point x="656" y="390" type="line"/>
      <point x="656" y="380" type="line" smooth="yes"/>
      <point x="656" y="260"/>
      <point x="816" y="128"/>
      <point x="948" y="128" type="qcurve" smooth="yes"/>
      <point x="1102" y="128"/>
      <point x="1260" y="260"/>
      <point x="1260" y="400" type="qcurve" smooth="yes"/>
      <point x="1260" y="540"/>
      <point x="1060" y="682"/>
      <point x="910" y="682" type="qcurve" smooth="yes"/>
      <point x="775" y="682" type="line"/>
      <point x="775" y="836" type="line"/>
      <point x="900" y="836" type="line" smooth="yes"/>
      <point x="1038" y="836"/>
      <point x="1210" y="970"/>
      <point x="1210" y="1090" type="qcurve" smooth="yes"/>
      <point x="1210" y="1210"/>
      <point x="1080" y="1328"/>
      <point x="948" y="1328" type="qcurve" smooth="yes"/>
      <point x="838" y="1328"/>
      <point x="696" y="1210"/>
      <point x="696" y="1100" type="qcurve" smooth="yes"/>
      <point x="696" y="1090" type="line"/>
      <point x="153" y="1090" type="line"/>
      <point x="153" y="1100" type="line" smooth="yes"/>
      <point x="153" y="1260"/>
      <point x="605" y="1486"/>
      <point x="951" y="1486" type="qcurve" smooth="yes"/>
      <point x="1319" y="1486"/>
      <point x="1759" y="1270"/>
      <point x="1759" y="1100" type="qcurve" smooth="yes"/>
      <point x="1759" y="956"/>
      <point x="1525" y="802"/>
      <point x="1377" y="766" type="qcurve"/>
      <point x="1377" y="762" type="line"/>
      <point x="1567" y="742"/>
      <point x="1854" y="558"/>
      <point x="1854" y="401" type="qcurve" smooth="yes"/>
      <point x="1854" y="200"/>
      <point x="1355" y="-30"/>
      <point x="951" y="-30" type="qcurve" smooth="yes"/>
      <point x="568" y="-30"/>
      <point x="80" y="200"/>
    </contour>
  </outline>
</glyph>
<glyph name="four" format="2">
  <advance width="1968"/>
  <unicode hex="0034"/>
  <outline>
    <contour>
      <point x="1136" y="0" type="line"/>
      <point x="1136" y="398" type="line"/>
      <point x="1136" y="450" type="line"/>
      <point x="1136" y="1249" type="line"/>
      <point x="1124" y="1249" type="line"/>
      <point x="269" y="500" type="line"/>
      <point x="1187" y="500" type="line"/>
      <point x="1264" y="500" type="line"/>
      <point x="1920" y="500" type="line"/>
      <point x="1920" y="342" type="line"/>
      <point x="50" y="342" type="line"/>
      <point x="50" y="468" type="line"/>
      <point x="1144" y="1456" type="line"/>
      <point x="1716" y="1456" type="line"/>
      <point x="1716" y="0" type="line"/>
    </contour>
  </outline>
</glyph>
<glyph name="five" format="2">
  <advance width="1968"/>
  <unicode hex="0035"/>
  <outline>
    <contour>
      <point x="47" y="365" type="qcurve" smooth="yes"/>
      <point x="47" y="375" type="line"/>
      <point x="566" y="375" type="line"/>
      <point x="566" y="365" type="line" smooth="yes"/>
      <point x="566" y="255"/>
      <point x="722" y="128"/>
      <point x="929" y="128" type="qcurve" smooth="yes"/>
      <point x="1122" y="128"/>
      <point x="1288" y="305"/>
      <point x="1288" y="465" type="qcurve" smooth="yes"/>
      <point x="1288" y="625"/>
      <point x="1092" y="793"/>
      <point x="893" y="793" type="qcurve" smooth="yes"/>
      <point x="672" y="793"/>
      <point x="406" y="722"/>
      <point x="314" y="668" type="qcurve"/>
      <point x="182" y="730" type="line"/>
      <point x="256" y="1456" type="line"/>
      <point x="1752" y="1456" type="line"/>
      <point x="1752" y="996" type="line"/>
      <point x="382" y="996" type="line"/>
      <point x="368" y="876" type="line"/>
      <point x="438" y="903"/>
      <point x="734" y="952"/>
      <point x="938" y="952" type="qcurve"/>
      <point x="1464" y="952"/>
      <point x="1878" y="695"/>
      <point x="1878" y="465" type="qcurve" smooth="yes"/>
      <point x="1878" y="235"/>
      <point x="1360" y="-30"/>
      <point x="921" y="-30" type="qcurve" smooth="yes"/>
      <point x="496" y="-30"/>
      <point x="47" y="195"/>
    </contour>
  </outline>
</glyph>
<glyph name="colon" format="2">
  <advance width="937"/>
  <unicode hex="003A"/>
  <outline>
    <contour>
      <point x="176" y="259" type="qcurve" smooth="yes"/>
      <point x="176" y="374"/>
      <point x="327" y="539"/>
      <point x="468" y="539" type="qcurve" smooth="yes"/>
      <point x="610" y="539"/>
      <point x="761" y="374"/>
      <point x="761" y="259" type="qcurve" smooth="yes"/>
      <point x="761" y="143"/>
      <point x="610" y="-22"/>
      <point x="468" y="-22" type="qcurve" smooth="yes"/>
      <point x="327" y="-22"/>
      <point x="176" y="143"/>
    </contour>
    <contour>
      <point x="176" y="787" type="qcurve" smooth="yes"/>
      <point x="176" y="903"/>
      <point x="327" y="1068"/>
      <point x="468" y="1068" type="qcurve" smooth="yes"/>
      <point x="610" y="1068"/>
      <point x="761" y="903"/>
      <point x="761" y="787" type="qcurve" smooth="yes"/>
      <point x="761" y="672"/>
      <point x="610" y="507"/>
      <point x="468" y="507" type="qcurve" smooth="yes"/>
      <point x="327" y="507"/>
      <point x="176" y="672"/>
    </contour>
  </outline>
</glyph>
<glyph name="greater" format="2">
  <advance width="1144"/>
  <unicode hex="003E"/>
  <outline>
    <contour>
      <point x="106" y="21" type="line"/>
      <point x="106" y="478" type="line"/>
      <point x="600" y="677" type="line"/>
      <point x="106" y="880" type="line"/>
      <point x="106" y="1323" type="line"/>
      <point x="1044" y="890" type="line"/>
      <point x="1044" y="458" type="line"/>
    </contour>
  </outline>
</glyph>
<glyph name="question" format="2">
  <advance width="1769"/>
  <unicode hex="003F"/>
  <outline>
    <contour>
      <point x="551" y="250" type="qcurve" smooth="yes"/>
      <point x="551" y="375"/>
      <point x="714" y="553"/>
      <point x="866" y="553" type="qcurve" smooth="yes"/>
      <point x="1019" y="553"/>
      <point x="1181" y="375"/>
      <point x="1181" y="250" type="qcurve" smooth="yes"/>
      <point x="1181" y="126"/>
      <point x="1019" y="-52"/>
      <point x="866" y="-52" type="qcurve" smooth="yes"/>
      <point x="714" y="-52"/>
      <point x="551" y="126"/>
    </contour>
    <contour>
      <point x="60" y="1105" type="line"/>
      <point x="60" y="1125" type="line" smooth="yes"/>
      <point x="60" y="1290"/>
      <point x="382" y="1486"/>
      <point x="870" y="1486" type="qcurve" smooth="yes"/>
      <point x="1358" y="1486"/>
      <point x="1675" y="1280"/>
      <point x="1675" y="1110" type="qcurve" smooth="yes"/>
      <point x="1675" y="945"/>
      <point x="1467" y="797"/>
      <point x="1282" y="743" type="qcurve" smooth="yes"/>
      <point x="1094" y="688"/>
      <point x="947" y="630"/>
      <point x="942" y="602" type="qcurve" smooth="yes"/>
      <point x="937" y="581" type="line"/>
      <point x="759" y="579" type="line"/>
      <point x="759" y="608" type="line" smooth="yes"/>
      <point x="759" y="635"/>
      <point x="809" y="723"/>
      <point x="912" y="801" type="qcurve" smooth="yes"/>
      <point x="1009" y="874"/>
      <point x="1088" y="1032"/>
      <point x="1088" y="1132" type="qcurve" smooth="yes"/>
      <point x="1088" y="1222"/>
      <point x="980" y="1324"/>
      <point x="870" y="1324" type="qcurve" smooth="yes"/>
      <point x="760" y="1324"/>
      <point x="645" y="1220"/>
      <point x="645" y="1125" type="qcurve" smooth="yes"/>
      <point x="645" y="1105" type="line"/>
    </contour>
  </outline>
</glyph>
<glyph name="A" format="2">
  <advance width="1727"/>
  <unicode hex="0041"/>
  <anchor x="640" y="0" name="bottom"/>
  <anchor x="1574" y="0" name="ogonek"/>
  <anchor x="840" y="1456" name="top"/>
  <anchor x="163" y="1074" name="tonos"/>
  <outline>
    <contour>
      <point x="0" y="0" type="line"/>
      <point x="554" y="1466" type="line"/>
      <point x="1173" y="1466" type="line"/>
      <point x="1727" y="0" type="line"/>
      <point x="1080" y="0" type="line"/>
      <point x="680" y="1100" type="line" smooth="yes"/>
      <point x="668" y="1133"/>
      <point x="650" y="1195"/>
      <point x="643" y="1228" type="qcurve"/>
      <point x="633" y="1228" type="line"/>
      <point x="626" y="1195"/>
      <point x="608" y="1133"/>
      <point x="596" y="1100" type="qcurve" smooth="yes"/>
      <point x="192" y="0" type="line"/>
    </contour>
    <contour>
      <point x="238" y="380" type="line"/>
      <point x="297" y="538" type="line"/>
      <point x="1202" y="538" type="line"/>
      <point x="1260" y="380" type="line"/>
    </contour>
  </outline>
</glyph>
<glyph name="B" format="2">
  <advance width="2133"/>
  <unicode hex="0042"/>
  <anchor x="630" y="0" name="bottom"/>
  <anchor x="630" y="1456" name="top"/>
  <outline>
    <contour>
      <point x="170" y="0" type="line"/>
      <point x="170" y="1456" type="line"/>
      <point x="1250" y="1456" type="line" smooth="yes"/>
      <point x="1628" y="1456"/>
      <point x="1975" y="1270"/>
      <point x="1975" y="1092" type="qcurve" smooth="yes"/>
      <point x="1975" y="950"/>
      <point x="1808" y="800"/>
      <point x="1650" y="768" type="qcurve"/>
      <point x="1650" y="764" type="line"/>
      <point x="1839" y="732"/>
      <point x="2033" y="560"/>
      <point x="2033" y="420" type="qcurve" smooth="yes"/>
      <point x="2033" y="220"/>
      <point x="1669" y="0"/>
      <point x="1296" y="0" type="qcurve" smooth="yes"/>
    </contour>
    <contour>
      <point x="789" y="158" type="line"/>
      <point x="1110" y="158" type="line" smooth="yes"/>
      <point x="1260" y="158"/>
      <point x="1400" y="300"/>
      <point x="1400" y="420" type="qcurve" smooth="yes"/>
      <point x="1400" y="540"/>
      <point x="1260" y="680"/>
      <point x="1110" y="680" type="qcurve" smooth="yes"/>
      <point x="488" y="680" type="line"/>
      <point x="488" y="836" type="line"/>
      <point x="1080" y="836" type="line" smooth="yes"/>
      <point x="1230" y="836"/>
      <point x="1362" y="960"/>
      <point x="1362" y="1070" type="qcurve" smooth="yes"/>
      <point x="1362" y="1180"/>
      <point x="1230" y="1298"/>
      <point x="1080" y="1298" type="qcurve" smooth="yes"/>
      <point x="789" y="1298" type="line"/>
    </contour>
  </outline>
</glyph>
<glyph name="C" format="2">
  <advance width="2225"/>
  <unicode hex="0043"/>
  <anchor x="710" y="0" name="bottom"/>
  <anchor x="720" y="1456" name="top"/>
  <outline>
    <contour>
      <point x="115" y="709" type="qcurve"/>
      <point x="115" y="727" type="line"/>
      <point x="115" y="1110"/>
      <point x="723" y="1486"/>
      <point x="1182" y="1486" type="qcurve" smooth="yes"/>
      <point x="1640" y="1486"/>
      <point x="2161" y="1201"/>
      <point x="2161" y="1000" type="qcurve" smooth="yes"/>
      <point x="2161" y="990" type="line"/>
      <point x="1529" y="990" type="line"/>
      <point x="1529" y="1000" type="line" smooth="yes"/>
      <point x="1529" y="1139"/>
      <point x="1349" y="1322"/>
      <point x="1166" y="1322" type="qcurve" smooth="yes"/>
      <point x="987" y="1322"/>
      <point x="755" y="1052"/>
      <point x="755" y="727" type="qcurve"/>
      <point x="755" y="709" type="line"/>
      <point x="755" y="426"/>
      <point x="986" y="134"/>
      <point x="1166" y="134" type="qcurve" smooth="yes"/>
      <point x="1338" y="134"/>
      <point x="1501" y="321"/>
      <point x="1528" y="456" type="qcurve" smooth="yes"/>
      <point x="1529" y="466" type="line"/>
      <point x="2161" y="466" type="line"/>
      <point x="2159" y="456" type="line" smooth="yes"/>
      <point x="2124" y="256"/>
      <point x="1640" y="-30"/>
      <point x="1182" y="-30" type="qcurve" smooth="yes"/>
      <point x="723" y="-30"/>
      <point x="115" y="346"/>
    </contour>
  </outline>
</glyph>
<glyph name="E" format="2">
  <advance width="1591"/>
  <unicode hex="0045"/>
  <anchor x="630" y="0" name="bottom"/>
  <anchor x="1094" y="0" name="ogonek"/>
  <anchor x="645" y="1456" name="top"/>
  <anchor x="-75" y="1074" name="tonos"/>
  <outline>
    <contour>
      <point x="170" y="0" type="line"/>
      <point x="170" y="1456" type="line"/>
      <point x="1513" y="1456" type="line"/>
      <point x="1513" y="1298" type="line"/>
      <point x="791" y="1298" type="line"/>
      <point x="791" y="158" type="line"/>
      <point x="1523" y="158" type="line"/>
      <point x="1523" y="0" type="line"/>
    </contour>
    <contour>
      <point x="272" y="672" type="line"/>
      <point x="272" y="830" type="line"/>
      <point x="1421" y="830" type="line"/>
      <point x="1421" y="672" type="line"/>
    </contour>
  </outline>
</glyph>
<glyph name="F" format="2">
  <advance width="1558"/>
  <unicode hex="0046"/>
  <anchor x="565" y="0" name="bottom"/>
  <anchor x="630" y="1457" name="top"/>
  <outline>
    <contour>
      <point x="170" y="0" type="line"/>
      <point x="170" y="1456" type="line"/>
      <point x="1500" y="1456" type="line"/>
      <point x="1500" y="1298" type="line"/>
      <point x="790" y="1298" type="line"/>
      <point x="790" y="0" type="line"/>
    </contour>
    <contour>
      <point x="700" y="643" type="line"/>
      <point x="700" y="801" type="line"/>
      <point x="1401" y="801" type="line"/>
      <point x="1401" y="643" type="line"/>
    </contour>
  </outline>
</glyph>
<glyph name="G" format="2">
  <advance width="2284"/>
  <unicode hex="0047"/>
  <anchor x="731" y="0" name="bottom"/>
  <anchor x="731" y="1456" name="top"/>
  <outline>
    <contour>
      <point x="115" y="718" type="qcurve" smooth="yes"/>
      <point x="115" y="741" type="line" smooth="yes"/>
      <point x="115" y="1093"/>
      <point x="710" y="1486"/>
      <point x="1182" y="1486" type="qcurve" smooth="yes"/>
      <point x="1607" y="1486"/>
      <point x="2103" y="1232"/>
      <point x="2119" y="1052" type="qcurve" smooth="yes"/>
      <point x="2121" y="1030" type="line"/>
      <point x="1513" y="1030" type="line"/>
      <point x="1510" y="1064" type="line" smooth="yes"/>
      <point x="1500" y="1172"/>
      <point x="1327" y="1322"/>
      <point x="1158" y="1322" type="qcurve" smooth="yes"/>
      <point x="967" y="1322"/>
      <point x="756" y="1016"/>
      <point x="756" y="747" type="qcurve" smooth="yes"/>
      <point x="756" y="729" type="line" smooth="yes"/>
      <point x="756" y="451"/>
      <point x="987" y="134"/>
      <point x="1197" y="134" type="qcurve" smooth="yes"/>
      <point x="1307" y="134"/>
      <point x="1467" y="180"/>
      <point x="1539" y="230" type="qcurve"/>
      <point x="1539" y="570" type="line"/>
      <point x="1177" y="570" type="line"/>
      <point x="1177" y="728" type="line"/>
      <point x="2152" y="728" type="line"/>
      <point x="2155" y="160" type="line"/>
      <point x="2036" y="90"/>
      <point x="1563" y="-30"/>
      <point x="1229" y="-30" type="qcurve" smooth="yes"/>
      <point x="720" y="-30"/>
      <point x="115" y="365"/>
    </contour>
  </outline>
</glyph>
<glyph name="I" format="2">
  <advance width="971"/>
  <unicode hex="0049"/>
  <anchor x="490" y="0" name="bottom"/>
  <anchor x="575" y="0" name="ogonek"/>
  <anchor x="490" y="1456" name="top"/>
  <anchor x="-55.0" y="1074" name="tonos"/>
  <outline>
    <contour>
      <point x="175" y="0" type="line"/>
      <point x="175" y="1456" type="line"/>
      <point x="796" y="1456" type="line"/>
      <point x="796" y="0" type="line"/>
    </contour>
  </outline>
</glyph>
<glyph name="K" format="2">
  <advance width="2144"/>
  <unicode hex="004B"/>
  <anchor x="633" y="0" name="bottom"/>
  <anchor x="633" y="1456" name="top"/>
  <outline>
    <contour>
      <point x="170" y="0" type="line"/>
      <point x="170" y="1456" type="line"/>
      <point x="791" y="1456" type="line"/>
      <point x="791" y="0" type="line"/>
    </contour>
    <contour>
      <point x="1479" y="0" type="line"/>
      <point x="1030" y="597" type="line"/>
      <point x="1395" y="998" type="line"/>
      <point x="2164" y="0" type="line"/>
    </contour>
    <contour>
      <point x="697" y="125" type="line"/>
      <point x="697" y="365" type="line"/>
      <point x="1689" y="1456" type="line"/>
      <point x="1921" y="1456" type="line"/>
    </contour>
  </outline>
</glyph>
<glyph name="Q" format="2">
  <advance width="2362"/>
  <unicode hex="0051"/>
  <anchor x="1176" y="0" name="bottom"/>
  <anchor x="1176" y="1456" name="top"/>
  <outline>
    <contour>
      <point x="115" y="721" type="qcurve" smooth="yes"/>
      <point x="115" y="738" type="line" smooth="yes"/>
      <point x="115" y="1091"/>
      <point x="664" y="1486"/>
      <point x="1176" y="1486" type="qcurve" smooth="yes"/>
      <point x="1688" y="1486"/>
      <point x="2237" y="1091"/>
      <point x="2237" y="738" type="qcurve" smooth="yes"/>
      <point x="2237" y="721" type="line" smooth="yes"/>
      <point x="2237" y="367"/>
      <point x="1678" y="-30"/>
      <point x="1176" y="-30" type="qcurve" smooth="yes"/>
      <point x="674" y="-30"/>
      <point x="115" y="367"/>
    </contour>
    <contour>
      <point x="755" y="682" type="line" smooth="yes"/>
      <point x="755" y="426"/>
      <point x="986" y="134"/>
      <point x="1176" y="134" type="qcurve" smooth="yes"/>
      <point x="1366" y="134"/>
      <point x="1597" y="426"/>
      <point x="1597" y="682" type="qcurve" smooth="yes"/>
      <point x="1597" y="774" type="line" smooth="yes"/>
      <point x="1597" y="1030"/>
      <point x="1366" y="1322"/>
      <point x="1176" y="1322" type="qcurve" smooth="yes"/>
      <point x="986" y="1322"/>
      <point x="755" y="1030"/>
      <point x="755" y="774" type="qcurve" smooth="yes"/>
    </contour>
    <contour>
      <point x="1735" y="-311" type="line"/>
      <point x="1296" y="30" type="line"/>
      <point x="1419" y="139" type="line"/>
      <point x="2120" y="79" type="line"/>
    </contour>
  </outline>
</glyph>
<glyph name="R" format="2">
  <advance width="2114"/>
  <unicode hex="0052"/>
  <anchor x="605" y="0" name="bottom"/>
  <anchor x="605" y="1456" name="top"/>
  <outline>
    <contour>
      <point x="170" y="0" type="line"/>
      <point x="170" y="1456" type="line"/>
      <point x="1304" y="1456" type="line" smooth="yes"/>
      <point x="1658" y="1456"/>
      <point x="1992" y="1239"/>
      <point x="1992" y="1028" type="qcurve" smooth="yes"/>
      <point x="1992" y="817"/>
      <point x="1638" y="594"/>
      <point x="1314" y="594" type="qcurve" smooth="yes"/>
      <point x="492" y="594" type="line"/>
      <point x="492" y="750" type="line"/>
      <point x="1063" y="750" type="line" smooth="yes"/>
      <point x="1229" y="750"/>
      <point x="1363" y="912"/>
      <point x="1363" y="1028" type="qcurve" smooth="yes"/>
      <point x="1363" y="1144"/>
      <point x="1229" y="1300"/>
      <point x="1063" y="1300" type="qcurve" smooth="yes"/>
      <point x="788" y="1300" type="line"/>
      <point x="788" y="0" type="line"/>
    </contour>
    <contour>
      <point x="1420" y="0" type="line"/>
      <point x="1064" y="672" type="line"/>
      <point x="1694" y="701" type="line"/>
      <point x="2074" y="0" type="line"/>
    </contour>
  </outline>
</glyph>
<glyph name="S" format="2">
  <advance width="2016"/>
  <unicode hex="0053"/>
  <anchor x="610" y="0" name="bottom"/>
  <anchor x="610" y="1456" name="top"/>
  <anchor x="1040" y="0" name="bottom"/>
  <anchor x="1040" y="1456" name="top"/>
  <outline>
    <contour>
      <point x="93" y="398" type="qcurve" smooth="yes"/>
      <point x="90" y="430" type="line"/>
      <point x="680" y="430" type="line"/>
      <point x="683" y="398" type="line" smooth="yes"/>
      <point x="695" y="266"/>
      <point x="858" y="134"/>
      <point x="1036" y="134" type="qcurve" smooth="yes"/>
      <point x="1208" y="134"/>
      <point x="1378" y="233"/>
      <point x="1378" y="293" type="qcurve" smooth="yes"/>
      <point x="1378" y="359"/>
      <point x="1238" y="438"/>
      <point x="919" y="508" type="qcurve" smooth="yes"/>
      <point x="477" y="605"/>
      <point x="118" y="817"/>
      <point x="118" y="1045" type="qcurve" smooth="yes"/>
      <point x="118" y="1267"/>
      <point x="592" y="1486"/>
      <point x="1008" y="1486" type="qcurve" smooth="yes"/>
      <point x="1424" y="1486"/>
      <point x="1896" y="1240"/>
      <point x="1905" y="1064" type="qcurve" smooth="yes"/>
      <point x="1908" y="1032" type="line"/>
      <point x="1318" y="1032" type="line"/>
      <point x="1315" y="1064" type="line" smooth="yes"/>
      <point x="1304" y="1180"/>
      <point x="1162" y="1322"/>
      <point x="991" y="1322" type="qcurve" smooth="yes"/>
      <point x="824" y="1322"/>
      <point x="678" y="1253"/>
      <point x="678" y="1181" type="qcurve" smooth="yes"/>
      <point x="678" y="1113"/>
      <point x="831" y="1050"/>
      <point x="1168" y="975" type="qcurve" smooth="yes"/>
      <point x="1567" y="886"/>
      <point x="1936" y="662"/>
      <point x="1936" y="447" type="qcurve" smooth="yes"/>
      <point x="1936" y="232"/>
      <point x="1468" y="-30"/>
      <point x="1039" y="-30" type="qcurve" smooth="yes"/>
      <point x="610" y="-30"/>
      <point x="103" y="200"/>
    </contour>
  </outline>
</glyph>
<glyph name="W" format="2">
  <advance width="2649"/>
  <unicode hex="0057"/>
  <anchor x="1306" y="0" name="bottom"/>
  <anchor x="1506" y="1456" name="top"/>
  <outline>
    <contour>
      <point x="408" y="-10" type="line"/>
      <point x="50" y="1456" type="line"/>
      <point x="654" y="1456" type="line"/>
      <point x="902" y="378" type="line" smooth="yes"/>
      <point x="910" y="344"/>
      <point x="917" y="303"/>
      <point x="921" y="270" type="qcurve"/>
      <point x="931" y="270" type="line"/>
      <point x="935" y="303"/>
      <point x="942" y="343"/>
      <point x="951" y="378" type="qcurve" smooth="yes"/>
      <point x="1222" y="1456" type="line"/>
      <point x="1841" y="1456" type="line"/>
      <point x="2122" y="378" type="line" smooth="yes"/>
      <point x="2131" y="344"/>
      <point x="2138" y="303"/>
      <point x="2142" y="270" type="qcurve"/>
      <point x="2151" y="270" type="line"/>
      <point x="2155" y="303"/>
      <point x="2164" y="345"/>
      <point x="2171" y="378" type="qcurve" smooth="yes"/>
      <point x="2409" y="1456" type="line"/>
      <point x="2599" y="1456" type="line"/>
      <point x="2241" y="-10" type="line"/>
      <point x="1630" y="-10" type="line"/>
      <point x="1349" y="1070" type="line" smooth="yes"/>
      <point x="1340" y="1104"/>
      <point x="1327" y="1165"/>
      <point x="1322" y="1198" type="qcurve"/>
      <point x="1314" y="1198" type="line"/>
      <point x="1309" y="1165"/>
      <point x="1296" y="1104"/>
      <point x="1287" y="1070" type="qcurve" smooth="yes"/>
      <point x="1006" y="-10" type="line"/>
    </contour>
  </outline>
</glyph>
<glyph name="backslash" format="2">
  <advance width="934"/>
  <unicode hex="005C"/>
  <outline>
    <contour>
      <point x="-100" y="1456" type="line"/>
      <point x="426" y="1456" type="line"/>
      <point x="1034" y="-125" type="line"/>
      <point x="508" y="-125" type="line"/>
    </contour>
  </outline>
</glyph>
<glyph name="k" format="2">
  <advance width="1828"/>
  <unicode hex="006B"/>
  <anchor x="914" y="0" name="bottom"/>
  <anchor x="914" y="1536" name="top"/>
  <outline>
    <contour>
      <point x="148" y="0" type="line"/>
      <point x="148" y="1536" type="line"/>
      <point x="734" y="1536" type="line"/>
      <point x="734" y="0" type="line"/>
    </contour>
    <contour>
      <point x="1226" y="0" type="line"/>
      <point x="895" y="439" type="line"/>
      <point x="1239" y="792" type="line"/>
      <point x="1844" y="0" type="line"/>
    </contour>
    <contour>
      <point x="588" y="2" type="line"/>
      <point x="588" y="220" type="line"/>
      <point x="1386" y="1052" type="line"/>
      <point x="1597" y="1052" type="line"/>
    </contour>
  </outline>
</glyph>
<glyph name="q" format="2">
  <advance width="1985"/>
  <unicode hex="0071"/>
  <anchor x="772" y="0" name="bottom"/>
  <anchor x="772" y="1052" name="top"/>
  <outline>
    <contour>
      <point x="1251" y="-416" type="line"/>
      <point x="1251" y="915" type="line"/>
      <point x="1261" y="915" type="line"/>
      <point x="1269" y="1052" type="line"/>
      <point x="1837" y="1052" type="line"/>
      <point x="1837" y="-416" type="line"/>
    </contour>
    <contour>
      <point x="979" y="132" type="qcurve" smooth="yes"/>
      <point x="1120" y="132"/>
      <point x="1293" y="354"/>
      <point x="1293" y="503" type="qcurve" smooth="yes"/>
      <point x="1293" y="531" type="line" smooth="yes"/>
      <point x="1293" y="704"/>
      <point x="1115" y="920"/>
      <point x="979" y="920" type="qcurve" smooth="yes"/>
      <point x="829" y="920"/>
      <point x="689" y="702"/>
      <point x="689" y="542" type="qcurve" smooth="yes"/>
      <point x="689" y="510" type="line" smooth="yes"/>
      <point x="689" y="350"/>
      <point x="829" y="132"/>
    </contour>
    <contour>
      <point x="772" y="-20" type="qcurve" smooth="yes"/>
      <point x="460" y="-20"/>
      <point x="85" y="280"/>
      <point x="85" y="510" type="qcurve" smooth="yes"/>
      <point x="85" y="542" type="line" smooth="yes"/>
      <point x="85" y="772"/>
      <point x="460" y="1072"/>
      <point x="772" y="1072" type="qcurve" smooth="yes"/>
      <point x="1086" y="1072"/>
      <point x="1429" y="769"/>
      <point x="1429" y="531" type="qcurve" smooth="yes"/>
      <point x="1429" y="505" type="line" smooth="yes"/>
      <point x="1429" y="282"/>
      <point x="1084" y="-20"/>
    </contour>
  </outline>
</glyph>
<glyph name="s" format="2">
  <advance width="1323"/>
  <unicode hex="0073"/>
  <anchor x="665" y="0" name="bottom"/>
  <anchor x="645" y="1052" name="top"/>
  <outline>
    <contour>
      <point x="30" y="310" type="line"/>
      <point x="446" y="310" type="line"/>
      <point x="446" y="305" type="line" smooth="yes"/>
      <point x="446" y="214"/>
      <point x="570" y="122"/>
      <point x="708" y="122" type="qcurve" smooth="yes"/>
      <point x="854" y="122"/>
      <point x="927" y="175"/>
      <point x="927" y="210" type="qcurve" smooth="yes"/>
      <point x="927" y="245"/>
      <point x="841" y="291"/>
      <point x="589" y="335" type="qcurve" smooth="yes"/>
      <point x="347" y="379"/>
      <point x="55" y="580"/>
      <point x="55" y="726" type="qcurve" smooth="yes"/>
      <point x="55" y="884"/>
      <point x="373" y="1082"/>
      <point x="650" y="1082" type="qcurve" smooth="yes"/>
      <point x="935" y="1082"/>
      <point x="1249" y="911"/>
      <point x="1249" y="765" type="qcurve" smooth="yes"/>
      <point x="1249" y="760" type="line"/>
      <point x="835" y="760" type="line"/>
      <point x="835" y="769" type="line" smooth="yes"/>
      <point x="835" y="844"/>
      <point x="750" y="930"/>
      <point x="627" y="930" type="qcurve" smooth="yes"/>
      <point x="511" y="930"/>
      <point x="419" y="879"/>
      <point x="419" y="844" type="qcurve" smooth="yes"/>
      <point x="419" y="809"/>
      <point x="485" y="768"/>
      <point x="770" y="720" type="qcurve" smooth="yes"/>
      <point x="1027" y="674"/>
      <point x="1293" y="508"/>
      <point x="1293" y="352" type="qcurve" smooth="yes"/>
      <point x="1293" y="178"/>
      <point x="1003" y="-30"/>
      <point x="660" y="-30" type="qcurve" smooth="yes"/>
      <point x="351" y="-30"/>
      <point x="30" y="153"/>
      <point x="30" y="305" type="qcurve" smooth="yes"/>
    </contour>
  </outline>
</glyph>
<glyph name="u" format="2">
  <advance width="1938"/>
  <unicode hex="0075"/>
  <anchor x="959" y="0" name="bottom"/>
  <anchor x="1790" y="0" name="ogonek"/>
  <anchor x="959" y="1052" name="top"/>
  <anchor x="1536" y="1052" name="topright"/>
  <anchor x="1590" y="0" name="cy_descender"/>
  <outline>
    <contour>
      <point x="669" y="-20" type="qcurve" smooth="yes"/>
      <point x="426" y="-20"/>
      <point x="138" y="161"/>
      <point x="138" y="373" type="qcurve" smooth="yes"/>
      <point x="138" y="1052" type="line"/>
      <point x="724" y="1052" type="line"/>
      <point x="724" y="371" type="line" smooth="yes"/>
      <point x="724" y="245"/>
      <point x="837" y="136"/>
      <point x="941" y="136" type="qcurve" smooth="yes"/>
      <point x="1030" y="136"/>
      <point x="1170" y="237"/>
      <point x="1296" y="433" type="qcurve"/>
      <point x="1300" y="260" type="line"/>
      <point x="1134" y="83"/>
      <point x="821" y="-20"/>
    </contour>
    <contour>
      <point x="1222" y="0" type="line"/>
      <point x="1204" y="304" type="line"/>
      <point x="1204" y="1052" type="line"/>
      <point x="1790" y="1052" type="line"/>
      <point x="1790" y="0" type="line"/>
    </contour>
  </outline>
</glyph>
<glyph name="v" format="2">
  <advance width="1372"/>
  <unicode hex="0076"/>
  <anchor x="901" y="0" name="bottom"/>
  <anchor x="901" y="1052" name="top"/>
  <outline>
    <contour>
      <point x="0" y="1052" type="line"/>
      <point x="610" y="1052" type="line"/>
      <point x="864" y="350" type="line" smooth="yes"/>
      <point x="878" y="310"/>
      <point x="897" y="240"/>
      <point x="901" y="220" type="qcurve"/>
      <point x="907" y="220" type="line"/>
      <point x="911" y="240"/>
      <point x="930" y="310"/>
      <point x="944" y="350" type="qcurve" smooth="yes"/>
      <point x="1196" y="1052" type="line"/>
      <point x="1372" y="1052" type="line"/>
      <point x="972" y="0" type="line"/>
      <point x="400" y="0" type="line"/>
    </contour>
  </outline>
</glyph>
<glyph name="w" format="2">
  <advance width="2407"/>
  <unicode hex="0077"/>
  <anchor x="773" y="0" name="bottom"/>
  <anchor x="773" y="1052" name="top"/>
  <outline>
    <contour>
      <point x="25" y="1052" type="line"/>
      <point x="626" y="1052" type="line"/>
      <point x="820" y="360" type="line" smooth="yes"/>
      <point x="831" y="320"/>
      <point x="844" y="270"/>
      <point x="852" y="230" type="qcurve"/>
      <point x="858" y="230" type="line"/>
      <point x="866" y="270"/>
      <point x="879" y="320"/>
      <point x="892" y="360" type="qcurve" smooth="yes"/>
      <point x="1121" y="1052" type="line"/>
      <point x="1717" y="1052" type="line"/>
      <point x="1953" y="360" type="line" smooth="yes"/>
      <point x="1967" y="320"/>
      <point x="1980" y="270"/>
      <point x="1988" y="230" type="qcurve"/>
      <point x="1994" y="230" type="line"/>
      <point x="2002" y="270"/>
      <point x="2014" y="320"/>
      <point x="2024" y="360" type="qcurve" smooth="yes"/>
      <point x="2212" y="1052" type="line"/>
      <point x="2382" y="1052" type="line"/>
      <point x="2057" y="0" type="line"/>
      <point x="1472" y="0" type="line"/>
      <point x="1243" y="680" type="line" smooth="yes"/>
      <point x="1230" y="720"/>
      <point x="1207" y="800"/>
      <point x="1197" y="840" type="qcurve"/>
      <point x="1191" y="840" type="line"/>
      <point x="1181" y="800"/>
      <point x="1159" y="720"/>
      <point x="1145" y="680" type="qcurve" smooth="yes"/>
      <point x="916" y="0" type="line"/>
      <point x="350" y="0" type="line"/>
    </contour>
  </outline>
</glyph>
<glyph name="braceleft" format="2">
  <advance width="1100"/>
  <unicode hex="007B"/>
  <outline>
    <contour>
      <point x="1070" y="-312" type="line"/>
      <point x="644" y="-312"/>
      <point x="193" y="-20"/>
      <point x="252" y="231" type="qcurve" smooth="yes"/>
      <point x="263" y="278" type="line" smooth="yes"/>
      <point x="292" y="398"/>
      <point x="176" y="508"/>
      <point x="64" y="508" type="qcurve"/>
      <point x="64" y="640" type="line"/>
      <point x="176" y="640"/>
      <point x="297" y="722"/>
      <point x="265" y="859" type="qcurve" smooth="yes"/>
      <point x="253" y="909" type="line" smooth="yes"/>
      <point x="191" y="1167"/>
      <point x="644" y="1460"/>
      <point x="1070" y="1460" type="qcurve"/>
      <point x="1070" y="1314" type="line"/>
      <point x="922" y="1314"/>
      <point x="783" y="1146"/>
      <point x="812" y="1025" type="qcurve" smooth="yes"/>
      <point x="842" y="899" type="line" smooth="yes"/>
      <point x="876" y="756"/>
      <point x="710" y="600"/>
      <point x="512" y="574" type="qcurve"/>
      <point x="710" y="548"/>
      <point x="875" y="388"/>
      <point x="842" y="249" type="qcurve" smooth="yes"/>
      <point x="812" y="123" type="line" smooth="yes"/>
      <point x="783" y="2"/>
      <point x="922" y="-166"/>
      <point x="1070" y="-166" type="qcurve"/>
    </contour>
  </outline>
</glyph>
<glyph name="logicalnot" format="2">
  <advance width="1224"/>
  <unicode hex="00AC"/>
  <outline>
    <contour>
      <point x="1128" y="801" type="line"/>
      <point x="1128" y="176" type="line"/>
      <point x="550" y="176" type="line"/>
      <point x="550" y="637" type="line"/>
      <point x="58" y="637" type="line"/>
      <point x="58" y="801" type="line"/>
    </contour>
  </outline>
</glyph>
<glyph name="registered" format="2">
  <advance width="1654"/>
  <unicode hex="00AE"/>
  <outline>
    <contour>
      <point x="38" y="687" type="qcurve" smooth="yes"/>
      <point x="38" y="1039"/>
      <point x="501" y="1519"/>
      <point x="827" y="1519" type="qcurve" smooth="yes"/>
      <point x="1152" y="1519"/>
      <point x="1616" y="1039"/>
      <point x="1616" y="687" type="qcurve" smooth="yes"/>
      <point x="1616" y="337"/>
      <point x="1152" y="-147"/>
      <point x="827" y="-147" type="qcurve" smooth="yes"/>
      <point x="501" y="-147"/>
      <point x="38" y="337"/>
    </contour>
    <contour>
      <point x="186" y="687" type="qcurve" smooth="yes"/>
      <point x="186" y="400"/>
      <point x="563" y="4"/>
      <point x="828" y="4" type="qcurve" smooth="yes"/>
      <point x="1092" y="4"/>
      <point x="1469" y="400"/>
      <point x="1469" y="687" type="qcurve" smooth="yes"/>
      <point x="1469" y="975"/>
      <point x="1092" y="1367"/>
      <point x="828" y="1367" type="qcurve" smooth="yes"/>
      <point x="563" y="1367"/>
      <point x="186" y="975"/>
    </contour>
    <contour>
      <point x="835" y="597" type="line"/>
      <point x="764" y="597" type="line"/>
      <point x="764" y="225" type="line"/>
      <point x="459" y="225" type="line"/>
      <point x="459" y="1158" type="line"/>
      <point x="921" y="1158" type="line" smooth="yes"/>
      <point x="1093" y="1158"/>
      <point x="1297" y="1018"/>
      <point x="1297" y="877" type="qcurve" smooth="yes"/>
      <point x="1297" y="764"/>
      <point x="1188" y="640"/>
      <point x="1079" y="618" type="qcurve"/>
      <point x="1110" y="595"/>
      <point x="1156" y="560"/>
      <point x="1172" y="530" type="qcurve" smooth="yes"/>
      <point x="1341" y="243" type="line"/>
      <point x="1341" y="225" type="line"/>
      <point x="1022" y="225" type="line"/>
    </contour>
    <contour>
      <point x="822" y="1007" type="qcurve" smooth="yes"/>
      <point x="764" y="1007" type="line"/>
      <point x="764" y="738" type="line"/>
      <point x="847" y="738" type="line" smooth="yes"/>
      <point x="900" y="738"/>
      <point x="996" y="795"/>
      <point x="996" y="874" type="qcurve" smooth="yes"/>
      <point x="996" y="940"/>
      <point x="920" y="1007"/>
    </contour>
  </outline>
</glyph>
<glyph name="micro" format="2">
  <advance width="1998"/>
  <unicode hex="00B5"/>
  <outline>
    <contour>
      <point x="242" y="1052" type="line"/>
      <point x="828" y="1052" type="line"/>
      <point x="696" y="371" type="line" smooth="yes"/>
      <point x="671" y="245"/>
      <point x="763" y="136"/>
      <point x="867" y="136" type="qcurve" smooth="yes"/>
      <point x="956" y="136"/>
      <point x="1111" y="232"/>
      <point x="1164" y="308" type="qcurve"/>
      <point x="1308" y="1052" type="line"/>
      <point x="1894" y="1052" type="line"/>
      <point x="1690" y="0" type="line"/>
      <point x="1122" y="0" type="line"/>
      <point x="1140" y="135" type="line"/>
      <point x="1134" y="135" type="line"/>
      <point x="1063" y="63"/>
      <point x="882" y="-20"/>
      <point x="782" y="-20" type="qcurve" smooth="yes"/>
      <point x="736" y="-20"/>
      <point x="661" y="15"/>
      <point x="632" y="42" type="qcurve"/>
      <point x="544" y="-416" type="line"/>
      <point x="-42" y="-416" type="line"/>
    </contour>
  </outline>
</glyph>
<glyph name="periodcentered" format="2">
  <advance width="937"/>
  <unicode hex="00B7"/>
  <outline>
    <contour>
      <point x="176" y="749" type="qcurve" smooth="yes"/>
      <point x="176" y="865"/>
      <point x="327" y="1030"/>
      <point x="468" y="1030" type="qcurve" smooth="yes"/>
      <point x="610" y="1030"/>
      <point x="761" y="865"/>
      <point x="761" y="749" type="qcurve" smooth="yes"/>
      <point x="761" y="633"/>
      <point x="610" y="468"/>
      <point x="468" y="468" type="qcurve" smooth="yes"/>
      <point x="327" y="468"/>
      <point x="176" y="633"/>
    </contour>
  </outline>
</glyph>
<glyph name="ordmasculine" format="2">
  <advance width="1734"/>
  <unicode hex="00BA"/>
  <guideline x="0" y="1975" angle="0" identifier="Jnt0R9CyOf"/>
  <outline>
    <contour>
      <point x="139" y="1075" type="qcurve"/>
      <point x="139" y="1092" type="line"/>
      <point x="139" y="1260"/>
      <point x="536" y="1477"/>
      <point x="874" y="1477" type="qcurve" smooth="yes"/>
      <point x="1214" y="1477"/>
      <point x="1610" y="1260"/>
      <point x="1610" y="1092" type="qcurve"/>
      <point x="1610" y="1075" type="line"/>
      <point x="1610" y="907"/>
      <point x="1217" y="691"/>
      <point x="878" y="691" type="qcurve" smooth="yes"/>
      <point x="539" y="691"/>
      <point x="139" y="907"/>
    </contour>
    <contour>
      <point x="695" y="1124" type="qcurve"/>
      <point x="695" y="1043" type="line"/>
      <point x="695" y="952"/>
      <point x="784" y="830"/>
      <point x="876" y="830" type="qcurve" smooth="yes"/>
      <point x="965" y="830"/>
      <point x="1054" y="952"/>
      <point x="1054" y="1043" type="qcurve"/>
      <point x="1054" y="1124" type="line"/>
      <point x="1054" y="1213"/>
      <point x="964" y="1336"/>
      <point x="874" y="1336" type="qcurve" smooth="yes"/>
      <point x="784" y="1336"/>
      <point x="695" y="1213"/>
    </contour>
  </outline>
</glyph>
<glyph name="questiondown" format="2">
  <advance width="1769"/>
  <unicode hex="00BF"/>
  <outline>
    <contour>
      <point x="1214" y="876" type="qcurve" smooth="yes"/>
      <point x="1214" y="751"/>
      <point x="1051" y="573"/>
      <point x="899" y="573" type="qcurve" smooth="yes"/>
      <point x="746" y="573"/>
      <point x="584" y="751"/>
      <point x="584" y="876" type="qcurve" smooth="yes"/>
      <point x="584" y="1000"/>
      <point x="746" y="1178"/>
      <point x="899" y="1178" type="qcurve" smooth="yes"/>
      <point x="1051" y="1178"/>
      <point x="1214" y="1000"/>
    </contour>
    <contour>
      <point x="1705" y="21" type="line"/>
      <point x="1705" y="1" type="line" smooth="yes"/>
      <point x="1705" y="-164"/>
      <point x="1383" y="-360"/>
      <point x="895" y="-360" type="qcurve" smooth="yes"/>
      <point x="407" y="-360"/>
      <point x="90" y="-154"/>
      <point x="90" y="16" type="qcurve" smooth="yes"/>
      <point x="90" y="181"/>
      <point x="298" y="329"/>
      <point x="483" y="383" type="qcurve" smooth="yes"/>
      <point x="671" y="438"/>
      <point x="818" y="496"/>
      <point x="823" y="524" type="qcurve" smooth="yes"/>
      <point x="828" y="545" type="line"/>
      <point x="1006" y="547" type="line"/>
      <point x="1006" y="518" type="line" smooth="yes"/>
      <point x="1006" y="491"/>
      <point x="956" y="403"/>
      <point x="853" y="325" type="qcurve" smooth="yes"/>
      <point x="756" y="252"/>
      <point x="677" y="94"/>
      <point x="677" y="-6" type="qcurve" smooth="yes"/>
      <point x="677" y="-96"/>
      <point x="785" y="-198"/>
      <point x="895" y="-198" type="qcurve" smooth="yes"/>
      <point x="1005" y="-198"/>
      <point x="1120" y="-94"/>
      <point x="1120" y="1" type="qcurve" smooth="yes"/>
      <point x="1120" y="21" type="line"/>
    </contour>
  </outline>
</glyph>
<glyph name="multiply" format="2">
  <advance width="1024"/>
  <unicode hex="00D7"/>
  <outline>
    <contour>
      <point x="95" y="138" type="line"/>
      <point x="-13" y="250" type="line"/>
      <point x="919" y="1205" type="line"/>
      <point x="1027" y="1092" type="line"/>
    </contour>
    <contour>
      <point x="712" y="137" type="line"/>
      <point x="-15" y="880" type="line"/>
      <point x="304" y="1204" type="line"/>
      <point x="1031" y="460" type="line"/>
    </contour>
  </outline>
</glyph>
<glyph name="divide" format="2">
  <advance width="1024"/>
  <unicode hex="00F7"/>
  <outline>
    <contour>
      <point x="285" y="1161" type="qcurve" smooth="yes"/>
      <point x="285" y="1257"/>
      <point x="398" y="1383"/>
      <point x="510" y="1383" type="qcurve" smooth="yes"/>
      <point x="620" y="1383"/>
      <point x="737" y="1257"/>
      <point x="737" y="1161" type="qcurve" smooth="yes"/>
      <point x="737" y="1069"/>
      <point x="620" y="945"/>
      <point x="510" y="945" type="qcurve" smooth="yes"/>
      <point x="398" y="945"/>
      <point x="285" y="1069"/>
    </contour>
    <contour>
      <point x="286" y="189" type="qcurve" smooth="yes"/>
      <point x="286" y="283"/>
      <point x="399" y="411"/>
      <point x="511" y="411" type="qcurve" smooth="yes"/>
      <point x="621" y="411"/>
      <point x="738" y="283"/>
      <point x="738" y="189" type="qcurve" smooth="yes"/>
      <point x="738" y="97"/>
      <point x="621" y="-29"/>
      <point x="511" y="-29" type="qcurve" smooth="yes"/>
      <point x="399" y="-29"/>
      <point x="286" y="97"/>
    </contour>
    <contour>
      <point x="57" y="588" type="line"/>
      <point x="57" y="760" type="line"/>
      <point x="967" y="760" type="line"/>
      <point x="967" y="588" type="line"/>
    </contour>
  </outline>
</glyph>
<glyph name="primemod" format="2">
  <advance width="1010"/>
  <unicode hex="02B9"/>
  <outline>
    <contour>
      <point x="234" y="1502" type="line"/>
      <point x="823" y="1502" type="line"/>
      <point x="694" y="891" type="line"/>
      <point x="172" y="896" type="line"/>
    </contour>
  </outline>
</glyph>
<glyph name="doubleprimemod" format="2">
  <advance width="1589"/>
  <unicode hex="02BA"/>
  <outline>
    <contour>
      <point x="224" y="1502" type="line"/>
      <point x="813" y="1502" type="line"/>
      <point x="695" y="888" type="line"/>
      <point x="173" y="893" type="line"/>
    </contour>
    <contour>
      <point x="924" y="1502" type="line"/>
      <point x="1513" y="1502" type="line"/>
      <point x="1395" y="888" type="line"/>
      <point x="873" y="893" type="line"/>
    </contour>
  </outline>
</glyph>
<glyph name="gravecomb" format="2">
  <unicode hex="0300"/>
  <anchor x="0" y="1052" name="_top"/>
  <anchor x="0" y="1599" name="top"/>
  <outline>
    <contour>
      <point x="-2" y="1162" type="line"/>
      <point x="-260" y="1394" type="line"/>
      <point x="-12" y="1600" type="line"/>
      <point x="214" y="1334" type="line"/>
    </contour>
  </outline>
</glyph>
<glyph name="acutecomb" format="2">
  <unicode hex="0301"/>
  <anchor x="0" y="1052" name="_top"/>
  <anchor x="0" y="1600" name="top"/>
  <outline>
    <contour>
      <point x="-76" y="1215" type="line"/>
      <point x="-172" y="1300" type="line"/>
      <point x="52" y="1656" type="line"/>
      <point x="280" y="1438" type="line"/>
    </contour>
  </outline>
</glyph>
<glyph name="circumflexcomb" format="2">
  <unicode hex="0302"/>
  <anchor x="0" y="1052" name="_top"/>
  <anchor x="0" y="1533" name="top"/>
  <outline>
    <contour>
      <point x="206" y="1563" type="line"/>
      <point x="563" y="1220" type="line"/>
      <point x="150" y="1220" type="line"/>
      <point x="0" y="1379" type="line"/>
      <point x="-150" y="1220" type="line"/>
      <point x="-563" y="1220" type="line"/>
      <point x="-206" y="1563" type="line"/>
    </contour>
  </outline>
</glyph>
<glyph name="tildecomb" format="2">
  <unicode hex="0303"/>
  <anchor x="0" y="1052" name="_top"/>
  <anchor x="0" y="1510" name="top"/>
  <outline>
    <contour>
      <point x="-378" y="1319" type="line"/>
      <point x="-342" y="1404"/>
      <point x="-207" y="1509"/>
      <point x="-143" y="1509" type="qcurve" smooth="yes"/>
      <point x="-81" y="1509"/>
      <point x="8" y="1473"/>
      <point x="42" y="1453" type="qcurve" smooth="yes"/>
      <point x="76" y="1433"/>
      <point x="132" y="1399"/>
      <point x="171" y="1399" type="qcurve" smooth="yes"/>
      <point x="204" y="1399"/>
      <point x="275" y="1430"/>
      <point x="298" y="1456" type="qcurve"/>
      <point x="378" y="1358" type="line"/>
      <point x="331" y="1268"/>
      <point x="212" y="1183"/>
      <point x="150" y="1183" type="qcurve" smooth="yes"/>
      <point x="88" y="1183"/>
      <point x="1" y="1213"/>
      <point x="-32" y="1233" type="qcurve" smooth="yes"/>
      <point x="-65" y="1253"/>
      <point x="-139" y="1296"/>
      <point x="-177" y="1296" type="qcurve" smooth="yes"/>
      <point x="-213" y="1296"/>
      <point x="-277" y="1266"/>
      <point x="-302" y="1229" type="qcurve"/>
    </contour>
  </outline>
</glyph>
<glyph name="brevecomb" format="2">
  <unicode hex="0306"/>
  <anchor x="0" y="1052" name="_top"/>
  <anchor x="0" y="1518" name="top"/>
  <outline>
    <contour>
      <point x="256" y="1550" type="qcurve"/>
      <point x="356" y="1505" type="line"/>
      <point x="302" y="1364"/>
      <point x="126" y="1197"/>
      <point x="0" y="1197" type="qcurve" smooth="yes"/>
      <point x="-113" y="1197"/>
      <point x="-294" y="1351"/>
      <point x="-355" y="1505" type="qcurve"/>
      <point x="-258" y="1548" type="line"/>
      <point x="-218" y="1520"/>
      <point x="-79" y="1435"/>
      <point x="0" y="1435" type="qcurve" smooth="yes"/>
      <point x="84" y="1435"/>
      <point x="223" y="1519"/>
    </contour>
  </outline>
</glyph>
<glyph name="dotaccentcomb" format="2">
  <unicode hex="0307"/>
  <anchor x="0" y="1052" name="_top"/>
  <anchor x="0" y="1458" name="top"/>
  <outline>
    <contour>
      <point x="-178" y="1387" type="qcurve" smooth="yes"/>
      <point x="-178" y="1460"/>
      <point x="-86" y="1559"/>
      <point x="0" y="1559" type="qcurve" smooth="yes"/>
      <point x="86" y="1559"/>
      <point x="178" y="1460"/>
      <point x="178" y="1387" type="qcurve" smooth="yes"/>
      <point x="178" y="1315"/>
      <point x="86" y="1216"/>
      <point x="0" y="1216" type="qcurve" smooth="yes"/>
      <point x="-86" y="1216"/>
      <point x="-178" y="1315"/>
    </contour>
  </outline>
</glyph>
<glyph name="dieresiscomb" format="2">
  <unicode hex="0308"/>
  <anchor x="0" y="1052" name="_GRK_top"/>
  <anchor x="0" y="1052" name="_top"/>
  <anchor x="0" y="1431" name="top"/>
  <outline>
    <contour>
      <point x="-370" y="1362" type="qcurve" smooth="yes"/>
      <point x="-370" y="1426"/>
      <point x="-291" y="1514"/>
      <point x="-216" y="1514" type="qcurve" smooth="yes"/>
      <point x="-140" y="1514"/>
      <point x="-60" y="1426"/>
      <point x="-60" y="1362" type="qcurve" smooth="yes"/>
      <point x="-60" y="1301"/>
      <point x="-140" y="1215"/>
      <point x="-216" y="1215" type="qcurve" smooth="yes"/>
      <point x="-291" y="1215"/>
      <point x="-370" y="1301"/>
    </contour>
    <contour>
      <point x="60" y="1362" type="qcurve" smooth="yes"/>
      <point x="60" y="1426"/>
      <point x="138" y="1514"/>
      <point x="215" y="1514" type="qcurve" smooth="yes"/>
      <point x="290" y="1514"/>
      <point x="370" y="1426"/>
      <point x="370" y="1362" type="qcurve" smooth="yes"/>
      <point x="370" y="1301"/>
      <point x="290" y="1215"/>
      <point x="215" y="1215" type="qcurve" smooth="yes"/>
      <point x="138" y="1215"/>
      <point x="60" y="1301"/>
    </contour>
  </outline>
</glyph>
<glyph name="hookabovecomb" format="2">
  <unicode hex="0309"/>
  <anchor x="0" y="1052" name="_top"/>
  <anchor x="0" y="1741" name="top"/>
  <outline>
    <contour>
      <point x="-70" y="1220" type="line"/>
      <point x="-70" y="1259" type="line" smooth="yes"/>
      <point x="-70" y="1311"/>
      <point x="-16" y="1378"/>
      <point x="47" y="1392" type="qcurve" smooth="yes"/>
      <point x="79" y="1399"/>
      <point x="103" y="1422"/>
      <point x="103" y="1446" type="qcurve" smooth="yes"/>
      <point x="103" y="1464"/>
      <point x="53" y="1498"/>
      <point x="18" y="1498" type="qcurve" smooth="yes"/>
      <point x="-46" y="1498"/>
      <point x="-145" y="1464"/>
      <point x="-168" y="1449" type="qcurve"/>
      <point x="-276" y="1658" type="line"/>
      <point x="-213" y="1694"/>
      <point x="-71" y="1742"/>
      <point x="49" y="1742" type="qcurve" smooth="yes"/>
      <point x="169" y="1742"/>
      <point x="356" y="1628"/>
      <point x="356" y="1482" type="qcurve" smooth="yes"/>
      <point x="356" y="1381"/>
      <point x="184" y="1261"/>
      <point x="70" y="1251" type="qcurve"/>
      <point x="70" y="1220" type="line"/>
    </contour>
  </outline>
</glyph>
<glyph name="hungarumlautcomb" format="2">
  <unicode hex="030B"/>
  <anchor x="0" y="1052" name="_top"/>
  <anchor x="0" y="1581" name="top"/>
  <outline>
    <contour>
      <point x="-250" y="1293" type="line"/>
      <point x="-35" y="1668" type="line"/>
      <point x="189" y="1489" type="line"/>
      <point x="-158" y="1218" type="line"/>
    </contour>
    <contour>
      <point x="57" y="1296" type="line"/>
      <point x="291" y="1658" type="line"/>
      <point x="520" y="1474" type="line"/>
      <point x="152" y="1221" type="line"/>
    </contour>
  </outline>
</glyph>
<glyph name="caroncomb" format="2">
  <unicode hex="030C"/>
  <anchor x="0" y="1052" name="_top"/>
  <anchor x="0" y="1557" name="top"/>
  <outline>
    <contour>
      <point x="-136" y="1213" type="line"/>
      <point x="-413" y="1556" type="line"/>
      <point x="-150" y="1556" type="line"/>
      <point x="0" y="1397" type="line"/>
      <point x="150" y="1556" type="line"/>
      <point x="413" y="1556" type="line"/>
      <point x="136" y="1213" type="line"/>
    </contour>
  </outline>
</glyph>
<glyph name="breveinvertedcomb" format="2">
  <unicode hex="030F"/>
  <anchor x="0" y="1052" name="_top"/>
  <anchor x="0" y="1540" name="top"/>
  <outline>
    <contour>
      <point x="-236" y="1221" type="qcurve"/>
      <point x="-338" y="1272" type="line"/>
      <point x="-297" y="1400"/>
      <point x="-127" y="1582"/>
      <point x="0" y="1583" type="qcurve" smooth="yes"/>
      <point x="127" y="1584"/>
      <point x="298" y="1399"/>
      <point x="335" y="1275" type="qcurve"/>
      <point x="236" y="1221" type="line"/>
      <point x="200" y="1260"/>
      <point x="84" y="1325"/>
      <point x="0" y="1326" type="qcurve"/>
      <point x="-79" y="1325"/>
      <point x="-201" y="1258"/>
    </contour>
  </outline>
</glyph>
<glyph name="commaaccentturnedcomb" format="2">
  <unicode hex="0312"/>
  <anchor x="0" y="1052" name="_top"/>
  <outline>
    <contour>
      <point x="243" y="1642" type="line"/>
      <point x="158" y="1281" type="line"/>
      <point x="-185" y="1325" type="line"/>
      <point x="-64" y="1686" type="line"/>
    </contour>
  </outline>
</glyph>
<glyph name="dotbelowcomb" format="2">
  <unicode hex="0323"/>
  <anchor x="0" y="0" name="_bottom"/>
  <anchor x="0" y="-511" name="bottom"/>
  <outline>
    <contour>
      <point x="-183" y="-335" type="qcurve" smooth="yes"/>
      <point x="-183" y="-260"/>
      <point x="-88" y="-158"/>
      <point x="0" y="-158" type="qcurve" smooth="yes"/>
      <point x="88" y="-158"/>
      <point x="183" y="-260"/>
      <point x="183" y="-335" type="qcurve" smooth="yes"/>
      <point x="183" y="-409"/>
      <point x="88" y="-511"/>
      <point x="0" y="-511" type="qcurve" smooth="yes"/>
      <point x="-88" y="-511"/>
      <point x="-183" y="-409"/>
    </contour>
  </outline>
</glyph>
<glyph name="dieresisbelowcomb" format="2">
  <unicode hex="0324"/>
  <anchor x="0" y="0" name="_bottom"/>
  <anchor x="0" y="-421" name="bottom"/>
  <outline>
    <contour>
      <point x="-370" y="-324" type="qcurve" smooth="yes"/>
      <point x="-370" y="-260"/>
      <point x="-291" y="-172"/>
      <point x="-216" y="-172" type="qcurve" smooth="yes"/>
      <point x="-140" y="-172"/>
      <point x="-60" y="-260"/>
      <point x="-60" y="-324" type="qcurve" smooth="yes"/>
      <point x="-60" y="-385"/>
      <point x="-140" y="-471"/>
      <point x="-216" y="-471" type="qcurve" smooth="yes"/>
      <point x="-291" y="-471"/>
      <point x="-370" y="-385"/>
    </contour>
    <contour>
      <point x="60" y="-324" type="qcurve" smooth="yes"/>
      <point x="60" y="-260"/>
      <point x="138" y="-172"/>
      <point x="215" y="-172" type="qcurve" smooth="yes"/>
      <point x="290" y="-172"/>
      <point x="370" y="-260"/>
      <point x="370" y="-324" type="qcurve" smooth="yes"/>
      <point x="370" y="-385"/>
      <point x="290" y="-471"/>
      <point x="215" y="-471" type="qcurve" smooth="yes"/>
      <point x="138" y="-471"/>
      <point x="60" y="-385"/>
    </contour>
  </outline>
</glyph>
<glyph name="brevebelowcomb" format="2">
  <unicode hex="032E"/>
  <anchor x="0" y="0" name="_bottom"/>
  <anchor x="0" y="-463" name="bottom"/>
  <outline>
    <contour>
      <point x="261" y="-101" type="qcurve"/>
      <point x="393" y="-155" type="line"/>
      <point x="333" y="-296"/>
      <point x="139" y="-463"/>
      <point x="0" y="-463" type="qcurve" smooth="yes"/>
      <point x="-124" y="-463"/>
      <point x="-324" y="-309"/>
      <point x="-391" y="-155" type="qcurve"/>
      <point x="-260" y="-101" type="line"/>
      <point x="-221" y="-128"/>
      <point x="-87" y="-175"/>
      <point x="0" y="-175" type="qcurve" smooth="yes"/>
      <point x="93" y="-175"/>
      <point x="221" y="-130"/>
    </contour>
  </outline>
</glyph>
<glyph name="delta" format="2">
  <advance width="1942"/>
  <unicode hex="03B4"/>
  <outline>
    <contour>
      <point x="961" y="-30" type="qcurve" smooth="yes"/>
      <point x="577" y="-30"/>
      <point x="85" y="231"/>
      <point x="85" y="439" type="qcurve" smooth="yes"/>
      <point x="85" y="469" type="line" smooth="yes"/>
      <point x="85" y="679"/>
      <point x="647" y="953"/>
      <point x="964" y="984" type="qcurve"/>
      <point x="1106" y="910" type="line"/>
      <point x="894" y="900"/>
      <point x="674" y="674"/>
      <point x="674" y="492" type="qcurve" smooth="yes"/>
      <point x="674" y="472" type="line" smooth="yes"/>
      <point x="674" y="310"/>
      <point x="816" y="124"/>
      <point x="962" y="122" type="qcurve" smooth="yes"/>
      <point x="1105" y="121"/>
      <point x="1268" y="318"/>
      <point x="1268" y="482" type="qcurve" smooth="yes"/>
      <point x="1268" y="501" type="line" smooth="yes"/>
      <point x="1268" y="619"/>
      <point x="1159" y="834"/>
      <point x="929" y="921" type="qcurve" smooth="yes"/>
      <point x="738" y="993"/>
      <point x="470" y="1151"/>
      <point x="470" y="1277" type="qcurve" smooth="yes"/>
      <point x="470" y="1404"/>
      <point x="701" y="1556"/>
      <point x="961" y="1556" type="qcurve" smooth="yes"/>
      <point x="1173" y="1556"/>
      <point x="1318" y="1518"/>
      <point x="1379" y="1487" type="qcurve"/>
      <point x="1348" y="1333" type="line"/>
      <point x="1262" y="1374"/>
      <point x="1100" y="1404"/>
      <point x="972" y="1404" type="qcurve" smooth="yes"/>
      <point x="794" y="1404"/>
      <point x="656" y="1329"/>
      <point x="654" y="1273" type="qcurve" smooth="yes"/>
      <point x="652" y="1227"/>
      <point x="906" y="1112"/>
      <point x="1085" y="1044" type="qcurve" smooth="yes"/>
      <point x="1406" y="922"/>
      <point x="1857" y="660"/>
      <point x="1857" y="495" type="qcurve" smooth="yes"/>
      <point x="1857" y="466" type="line" smooth="yes"/>
      <point x="1857" y="229"/>
      <point x="1345" y="-30"/>
    </contour>
  </outline>
</glyph>
<glyph name="epsilon" format="2">
  <advance width="1878"/>
  <unicode hex="03B5"/>
  <anchor x="973" y="1052" name="top"/>
  <outline>
    <contour>
      <point x="926" y="-30" type="qcurve" smooth="yes"/>
      <point x="542" y="-30"/>
      <point x="89" y="133"/>
      <point x="89" y="286" type="qcurve" smooth="yes"/>
      <point x="89" y="407"/>
      <point x="442" y="521"/>
      <point x="676" y="536" type="qcurve"/>
      <point x="676" y="514" type="line"/>
      <point x="433" y="529"/>
      <point x="128" y="658"/>
      <point x="128" y="773" type="qcurve" smooth="yes"/>
      <point x="128" y="906"/>
      <point x="588" y="1081"/>
      <point x="946" y="1081" type="qcurve" smooth="yes"/>
      <point x="1334" y="1081"/>
      <point x="1814" y="868"/>
      <point x="1814" y="710" type="qcurve"/>
      <point x="1234" y="710" type="line"/>
      <point x="1234" y="801"/>
      <point x="1116" y="930"/>
      <point x="973" y="930" type="qcurve" smooth="yes"/>
      <point x="852" y="930"/>
      <point x="727" y="845"/>
      <point x="727" y="755" type="qcurve" smooth="yes"/>
      <point x="727" y="674"/>
      <point x="824" y="597"/>
      <point x="909" y="597" type="qcurve" smooth="yes"/>
      <point x="1119" y="597" type="line"/>
      <point x="1119" y="455" type="line"/>
      <point x="909" y="455" type="line" smooth="yes"/>
      <point x="790" y="455"/>
      <point x="689" y="365"/>
      <point x="689" y="296" type="qcurve" smooth="yes"/>
      <point x="689" y="212"/>
      <point x="810" y="122"/>
      <point x="944" y="122" type="qcurve" smooth="yes"/>
      <point x="1087" y="122"/>
      <point x="1233" y="245"/>
      <point x="1233" y="342" type="qcurve"/>
      <point x="1813" y="342" type="line"/>
      <point x="1813" y="181"/>
      <point x="1331" y="-30"/>
    </contour>
  </outline>
</glyph>
<glyph name="eta" format="2">
  <advance width="1938"/>
  <unicode hex="03B7"/>
  <anchor x="569" y="0" name="bottom"/>
  <anchor x="595" y="1052" name="top"/>
  <outline>
    <contour>
      <point x="148" y="0" type="line"/>
      <point x="148" y="1052" type="line"/>
      <point x="716" y="1052" type="line"/>
      <point x="734" y="744" type="line"/>
      <point x="734" y="0" type="line"/>
    </contour>
    <contour>
      <point x="641" y="567" type="qcurve"/>
      <point x="641" y="746" type="line"/>
      <point x="739" y="935"/>
      <point x="1041" y="1072"/>
      <point x="1205" y="1072" type="qcurve" smooth="yes"/>
      <point x="1467" y="1072"/>
      <point x="1800" y="874"/>
      <point x="1800" y="601" type="qcurve" smooth="yes"/>
      <point x="1800" y="-416" type="line"/>
      <point x="1214" y="-416" type="line"/>
      <point x="1214" y="681" type="line" smooth="yes"/>
      <point x="1214" y="807"/>
      <point x="1101" y="916"/>
      <point x="997" y="916" type="qcurve" smooth="yes"/>
      <point x="906" y="916"/>
      <point x="743" y="790"/>
    </contour>
  </outline>
</glyph>
<glyph name="iota" format="2">
  <advance width="1000"/>
  <unicode hex="03B9"/>
  <anchor x="235" y="1052" name="top"/>
  <outline>
    <contour>
      <point x="542" y="-30" type="qcurve" smooth="yes"/>
      <point x="367" y="-30"/>
      <point x="138" y="158"/>
      <point x="138" y="320" type="qcurve" smooth="yes"/>
      <point x="138" y="1052" type="line"/>
      <point x="724" y="1052" type="line"/>
      <point x="724" y="260" type="line" smooth="yes"/>
      <point x="724" y="190"/>
      <point x="780" y="130"/>
      <point x="840" y="130" type="qcurve" smooth="yes"/>
      <point x="868" y="130"/>
      <point x="922" y="142"/>
      <point x="950" y="152" type="qcurve"/>
      <point x="950" y="0" type="line"/>
      <point x="924" y="-12"/>
      <point x="713" y="-30"/>
    </contour>
  </outline>
</glyph>
<glyph name="kappa" format="2">
  <advance width="1843"/>
  <unicode hex="03BA"/>
  <outline>
    <contour>
      <point x="1230" y="0" type="line"/>
      <point x="811" y="477" type="line"/>
      <point x="1236" y="700" type="line"/>
      <point x="1858" y="0" type="line"/>
    </contour>
    <contour>
      <point x="441" y="610" type="line"/>
      <point x="1040" y="610" type="line"/>
      <point x="1425" y="1052" type="line"/>
      <point x="1643" y="1052" type="line"/>
      <point x="1128" y="465" type="line"/>
      <point x="441" y="465" type="line"/>
    </contour>
    <contour>
      <point x="734" y="1052" type="line"/>
      <point x="734" y="0" type="line"/>
      <point x="148" y="0" type="line"/>
      <point x="148" y="1052" type="line"/>
    </contour>
  </outline>
</glyph>
<glyph name="xi" format="2">
  <advance width="1259"/>
  <unicode hex="03BE"/>
  <outline>
    <contour>
      <point x="988" y="-348" type="line"/>
      <point x="1009" y="-311"/>
      <point x="1032" y="-251"/>
      <point x="1032" y="-208" type="qcurve" smooth="yes"/>
      <point x="1032" y="-154"/>
      <point x="962" y="-97"/>
      <point x="776" y="-51" type="qcurve" smooth="yes"/>
      <point x="574" y="-1" type="line" smooth="yes"/>
      <point x="262" y="76"/>
      <point x="24" y="240"/>
      <point x="24" y="385" type="qcurve" smooth="yes"/>
      <point x="24" y="555"/>
      <point x="274" y="726"/>
      <point x="417" y="767" type="qcurve"/>
      <point x="417" y="743" type="line"/>
      <point x="257" y="783"/>
      <point x="72" y="927"/>
      <point x="72" y="1040" type="qcurve" smooth="yes"/>
      <point x="72" y="1199"/>
      <point x="466" y="1362"/>
      <point x="771" y="1393" type="qcurve"/>
      <point x="771" y="1384" type="line"/>
      <point x="30" y="1384" type="line"/>
      <point x="30" y="1536" type="line"/>
      <point x="1185" y="1536" type="line"/>
      <point x="1185" y="1384" type="line"/>
      <point x="872" y="1365"/>
      <point x="651" y="1221"/>
      <point x="651" y="1082" type="qcurve" smooth="yes"/>
      <point x="651" y="975"/>
      <point x="793" y="846"/>
      <point x="943" y="846" type="qcurve" smooth="yes"/>
      <point x="1123" y="846" type="line"/>
      <point x="1123" y="694" type="line"/>
      <point x="943" y="694" type="line" smooth="yes"/>
      <point x="774" y="694"/>
      <point x="611" y="619"/>
      <point x="611" y="541" type="qcurve" smooth="yes"/>
      <point x="611" y="478"/>
      <point x="732" y="417"/>
      <point x="834" y="389" type="qcurve" smooth="yes"/>
      <point x="922" y="365" type="line" smooth="yes"/>
      <point x="1096" y="317"/>
      <point x="1230" y="98"/>
      <point x="1230" y="-44" type="qcurve"/>
      <point x="1230" y="-107"/>
      <point x="1190" y="-278"/>
      <point x="1158" y="-348" type="qcurve"/>
    </contour>
  </outline>
</glyph>
<glyph name="tau" format="2">
  <advance width="1220"/>
  <unicode hex="03C4"/>
  <outline>
    <contour>
      <point x="0" y="900" type="line"/>
      <point x="0" y="1052" type="line"/>
      <point x="1170" y="1052" type="line"/>
      <point x="1170" y="900" type="line"/>
    </contour>
    <contour>
      <point x="692" y="-30" type="qcurve" smooth="yes"/>
      <point x="478" y="-30"/>
      <point x="278" y="151"/>
      <point x="278" y="382" type="qcurve" smooth="yes"/>
      <point x="278" y="971" type="line"/>
      <point x="864" y="971" type="line"/>
      <point x="864" y="260" type="line" smooth="yes"/>
      <point x="864" y="190"/>
      <point x="920" y="130"/>
      <point x="980" y="130" type="qcurve" smooth="yes"/>
      <point x="1008" y="130"/>
      <point x="1062" y="142"/>
      <point x="1090" y="152" type="qcurve"/>
      <point x="1090" y="0" type="line"/>
      <point x="1050" y="-11"/>
      <point x="904" y="-30"/>
    </contour>
  </outline>
</glyph>
<glyph name="phi" format="2">
  <advance width="2508"/>
  <unicode hex="03C6"/>
  <outline>
    <contour>
      <point x="876" y="-416" type="line"/>
      <point x="876" y="45" type="line"/>
      <point x="876" y="89" type="line"/>
      <point x="876" y="981" type="line"/>
      <point x="876" y="1022" type="line"/>
      <point x="876" y="1536" type="line"/>
      <point x="1462" y="1536" type="line"/>
      <point x="1462" y="1022" type="line"/>
      <point x="1462" y="979" type="line"/>
      <point x="1462" y="85" type="line"/>
      <point x="1462" y="45" type="line"/>
      <point x="1462" y="-416" type="line"/>
    </contour>
    <contour>
      <point x="816" y="-30" type="line"/>
      <point x="372" y="-20"/>
      <point x="-85" y="267"/>
      <point x="-85" y="510" type="qcurve" smooth="yes"/>
      <point x="-85" y="542" type="line" smooth="yes"/>
      <point x="-85" y="785"/>
      <point x="372" y="1072"/>
      <point x="816" y="1082" type="qcurve"/>
      <point x="1522" y="1082" type="line"/>
      <point x="1966" y="1072"/>
      <point x="2423" y="785"/>
      <point x="2423" y="542" type="qcurve" smooth="yes"/>
      <point x="2423" y="510" type="line" smooth="yes"/>
      <point x="2423" y="267"/>
      <point x="1966" y="-20"/>
      <point x="1522" y="-30" type="qcurve"/>
    </contour>
    <contour>
      <point x="876" y="122" type="qcurve"/>
      <point x="1462" y="122" type="line"/>
      <point x="1659" y="132"/>
      <point x="1818" y="342"/>
      <point x="1818" y="510" type="qcurve" smooth="yes"/>
      <point x="1818" y="542" type="line" smooth="yes"/>
      <point x="1818" y="710"/>
      <point x="1659" y="920"/>
      <point x="1462" y="930" type="qcurve"/>
      <point x="876" y="930" type="line"/>
      <point x="679" y="920"/>
      <point x="520" y="710"/>
      <point x="520" y="542" type="qcurve" smooth="yes"/>
      <point x="520" y="510" type="line" smooth="yes"/>
      <point x="520" y="342"/>
      <point x="679" y="132"/>
    </contour>
  </outline>
</glyph>
<glyph name="Zhe" format="2">
  <advance width="2972"/>
  <unicode hex="0416"/>
  <anchor x="1471" y="1456" name="top"/>
  <anchor x="1554" y="0" name="cy_descender"/>
  <outline>
    <contour>
      <point x="1176" y="0" type="line"/>
      <point x="1176" y="1456" type="line"/>
      <point x="1776" y="1456" type="line"/>
      <point x="1776" y="0" type="line"/>
    </contour>
    <contour>
      <point x="2354" y="0" type="line"/>
      <point x="1861" y="678" type="line"/>
      <point x="2271" y="949" type="line"/>
      <point x="2992" y="0" type="line"/>
    </contour>
    <contour>
      <point x="1472" y="784" type="line"/>
      <point x="2014" y="784" type="line"/>
      <point x="2561" y="1456" type="line"/>
      <point x="2778" y="1456" type="line"/>
      <point x="2088" y="636" type="line"/>
      <point x="1472" y="636" type="line"/>
    </contour>
    <contour>
      <point x="-20" y="0" type="line"/>
      <point x="697" y="957" type="line"/>
      <point x="1097" y="679" type="line"/>
      <point x="610" y="0" type="line"/>
    </contour>
    <contour>
      <point x="1472" y="784" type="line"/>
      <point x="1472" y="636" type="line"/>
      <point x="913" y="636" type="line"/>
      <point x="172" y="1456" type="line"/>
      <point x="391" y="1456" type="line"/>
      <point x="990" y="784" type="line"/>
    </contour>
  </outline>
</glyph>
<glyph name="Ze" format="2">
  <advance width="2090"/>
  <unicode hex="0417"/>
  <anchor x="709" y="0" name="bottom"/>
  <outline>
    <contour>
      <point x="1048" y="134" type="qcurve" smooth="yes"/>
      <point x="1221" y="134"/>
      <point x="1379" y="289"/>
      <point x="1379" y="420" type="qcurve" smooth="yes"/>
      <point x="1379" y="540"/>
      <point x="1239" y="680"/>
      <point x="1089" y="680" type="qcurve" smooth="yes"/>
      <point x="857" y="680" type="line"/>
      <point x="857" y="836" type="line"/>
      <point x="1059" y="836" type="line" smooth="yes"/>
      <point x="1189" y="836"/>
      <point x="1321" y="963"/>
      <point x="1321" y="1075" type="qcurve" smooth="yes"/>
      <point x="1321" y="1194"/>
      <point x="1175" y="1322"/>
      <point x="1036" y="1322" type="qcurve" smooth="yes"/>
      <point x="877" y="1322"/>
      <point x="721" y="1197"/>
      <point x="709" y="1042" type="qcurve" smooth="yes"/>
      <point x="705" y="1000" type="line"/>
      <point x="98" y="1000" type="line"/>
      <point x="102" y="1040" type="line" smooth="yes"/>
      <point x="122" y="1241"/>
      <point x="550" y="1488"/>
      <point x="1004" y="1488" type="qcurve" smooth="yes"/>
      <point x="1451" y="1488"/>
      <point x="1922" y="1287"/>
      <point x="1922" y="1075" type="qcurve" smooth="yes"/>
      <point x="1922" y="929"/>
      <point x="1724" y="792"/>
      <point x="1549" y="768" type="qcurve"/>
      <point x="1549" y="764" type="line"/>
      <point x="1733" y="736"/>
      <point x="1990" y="572"/>
      <point x="1990" y="420" type="qcurve" smooth="yes"/>
      <point x="1990" y="206"/>
      <point x="1555" y="-30"/>
      <point x="1078" y="-30" type="qcurve" smooth="yes"/>
      <point x="601" y="-30"/>
      <point x="89" y="174"/>
      <point x="85" y="426" type="qcurve" smooth="yes"/>
      <point x="84" y="476" type="line"/>
      <point x="685" y="476" type="line"/>
      <point x="689" y="436" type="line" smooth="yes"/>
      <point x="706" y="267"/>
      <point x="865" y="134"/>
    </contour>
  </outline>
</glyph>
<glyph name="Ka" format="2">
  <advance width="2106"/>
  <unicode hex="041A"/>
  <guideline x="480" y="796" angle="90" identifier="LxfLwWU0sJ"/>
  <anchor x="657" y="1456" name="top"/>
  <anchor x="1940" y="0" name="cy_descender"/>
  <outline>
    <contour>
      <point x="1470" y="0" type="line"/>
      <point x="860" y="717" type="line"/>
      <point x="1293" y="971" type="line"/>
      <point x="2126" y="0" type="line"/>
    </contour>
    <contour>
      <point x="686" y="830" type="line"/>
      <point x="1058" y="830" type="line"/>
      <point x="1603" y="1456" type="line"/>
      <point x="1820" y="1456" type="line"/>
      <point x="1136" y="672" type="line"/>
      <point x="686" y="672" type="line"/>
    </contour>
    <contour>
      <point x="170" y="0" type="line"/>
      <point x="170" y="1456" type="line"/>
      <point x="782" y="1456" type="line"/>
      <point x="782" y="0" type="line"/>
    </contour>
  </outline>
</glyph>
<glyph name="de" format="2">
  <advance width="1931"/>
  <unicode hex="0434"/>
  <outline>
    <contour>
      <point x="1743" y="-270" type="line"/>
      <point x="1743" y="0" type="line"/>
      <point x="178" y="0" type="line"/>
      <point x="178" y="-270" type="line"/>
      <point x="10" y="-270" type="line"/>
      <point x="10" y="145" type="line"/>
      <point x="1911" y="145" type="line"/>
      <point x="1911" y="-270" type="line"/>
    </contour>
    <contour>
      <point x="783" y="907" type="line"/>
      <point x="766" y="510" type="line" smooth="yes"/>
      <point x="759" y="337"/>
      <point x="725" y="173"/>
      <point x="690" y="79" type="qcurve"/>
      <point x="82" y="79" type="line"/>
      <point x="133" y="162"/>
      <point x="187" y="330"/>
      <point x="196" y="538" type="qcurve" smooth="yes"/>
      <point x="218" y="1052" type="line"/>
      <point x="1756" y="1052" type="line"/>
      <point x="1756" y="79" type="line"/>
      <point x="1170" y="79" type="line"/>
      <point x="1170" y="907" type="line"/>
    </contour>
  </outline>
</glyph>
<glyph name="zhe" format="2">
  <advance width="2595"/>
  <unicode hex="0436"/>
  <anchor x="1096" y="1052" name="top"/>
  <anchor x="1620" y="0" name="cy_descender"/>
  <outline>
    <contour>
      <point x="1585" y="0" type="line"/>
      <point x="1005" y="0" type="line"/>
      <point x="1005" y="1052" type="line"/>
      <point x="1585" y="1052" type="line"/>
    </contour>
    <contour>
      <point x="2010" y="0" type="line"/>
      <point x="1644" y="522" type="line"/>
      <point x="2164" y="641" type="line"/>
      <point x="2620" y="0" type="line"/>
    </contour>
    <contour>
      <point x="1295" y="610" type="line"/>
      <point x="1974" y="610" type="line"/>
      <point x="2279" y="1052" type="line"/>
      <point x="2483" y="1052" type="line"/>
      <point x="2071" y="465" type="line"/>
      <point x="1295" y="465" type="line"/>
    </contour>
    <contour>
      <point x="580" y="0" type="line"/>
      <point x="-25" y="0" type="line"/>
      <point x="425" y="635" type="line"/>
      <point x="938" y="516" type="line"/>
    </contour>
    <contour>
      <point x="1295" y="610" type="line"/>
      <point x="1295" y="465" type="line"/>
      <point x="517" y="465" type="line"/>
      <point x="105" y="1052" type="line"/>
      <point x="311" y="1052" type="line"/>
      <point x="616" y="610" type="line"/>
    </contour>
  </outline>
</glyph>
<glyph name="ka" format="2">
  <advance width="1843"/>
  <unicode hex="043A"/>
  <guideline x="241" y="553" angle="90" identifier="lmgRx0QBdK"/>
  <anchor x="901" y="1052" name="top"/>
  <anchor x="1695" y="0" name="cy_descender"/>
  <outline>
    <contour>
      <point x="1230" y="0" type="line"/>
      <point x="797" y="496" type="line"/>
      <point x="1311" y="622" type="line"/>
      <point x="1858" y="0" type="line"/>
    </contour>
    <contour>
      <point x="441" y="610" type="line"/>
      <point x="1090" y="610" type="line"/>
      <point x="1475" y="1052" type="line"/>
      <point x="1693" y="1052" type="line"/>
      <point x="1178" y="465" type="line"/>
      <point x="441" y="465" type="line"/>
    </contour>
    <contour>
      <point x="734" y="1052" type="line"/>
      <point x="734" y="0" type="line"/>
      <point x="148" y="0" type="line"/>
      <point x="148" y="1052" type="line"/>
    </contour>
  </outline>
</glyph>
<glyph name="sha" format="2">
  <advance width="2874"/>
  <unicode hex="0448"/>
  <anchor x="1430" y="0" name="cy_descender"/>
  <outline>
    <contour>
      <point x="148" y="0" type="line"/>
      <point x="148" y="1052" type="line"/>
      <point x="734" y="1052" type="line"/>
      <point x="734" y="145" type="line"/>
      <point x="1144" y="145" type="line"/>
      <point x="1144" y="1052" type="line"/>
      <point x="1730" y="1052" type="line"/>
      <point x="1730" y="145" type="line"/>
      <point x="2140" y="145" type="line"/>
      <point x="2140" y="1052" type="line"/>
      <point x="2726" y="1052" type="line"/>
      <point x="2726" y="0" type="line"/>
    </contour>
  </outline>
</glyph>
<glyph name="nje" format="2">
  <advance width="2901"/>
  <unicode hex="045A"/>
  <outline>
    <contour>
      <point x="148" y="0" type="line"/>
      <point x="148" y="1052" type="line"/>
      <point x="734" y="1052" type="line"/>
      <point x="734" y="0" type="line"/>
    </contour>
    <contour>
      <point x="444" y="525" type="line"/>
      <point x="444" y="670" type="line"/>
      <point x="1491" y="670" type="line"/>
      <point x="1491" y="525" type="line"/>
    </contour>
    <contour>
      <point x="1201" y="0" type="line"/>
      <point x="1201" y="1052" type="line"/>
      <point x="1787" y="1052" type="line"/>
      <point x="1787" y="145" type="line"/>
      <point x="2029" y="145" type="line" smooth="yes"/>
      <point x="2154" y="145"/>
      <point x="2255" y="255"/>
      <point x="2255" y="337" type="qcurve" smooth="yes"/>
      <point x="2255" y="418"/>
      <point x="2154" y="525"/>
      <point x="2029" y="525" type="qcurve" smooth="yes"/>
      <point x="1517" y="525" type="line"/>
      <point x="1517" y="670" type="line"/>
      <point x="2340" y="670" type="line" smooth="yes"/>
      <point x="2581" y="670"/>
      <point x="2841" y="491"/>
      <point x="2841" y="337" type="qcurve" smooth="yes"/>
      <point x="2841" y="183"/>
      <point x="2581" y="0"/>
      <point x="2340" y="0" type="qcurve" smooth="yes"/>
    </contour>
  </outline>
</glyph>
<glyph name="Kabashkircyr" format="2">
  <advance width="2359"/>
  <unicode hex="04A0"/>
  <outline>
    <contour>
      <point x="1712" y="0" type="line"/>
      <point x="1084" y="740" type="line"/>
      <point x="1606" y="907" type="line"/>
      <point x="2379" y="0" type="line"/>
    </contour>
    <contour>
      <point x="703" y="830" type="line"/>
      <point x="1362" y="830" type="line"/>
      <point x="1987" y="1456" type="line"/>
      <point x="2204" y="1456" type="line"/>
      <point x="1440" y="672" type="line"/>
      <point x="703" y="672" type="line"/>
    </contour>
    <contour>
      <point x="399" y="0" type="line"/>
      <point x="399" y="1298" type="line"/>
      <point x="24" y="1298" type="line"/>
      <point x="24" y="1456" type="line"/>
      <point x="1014" y="1456" type="line"/>
      <point x="1014" y="0" type="line"/>
    </contour>
  </outline>
</glyph>
<glyph name="Germandbls" format="2">
  <advance width="2259"/>
  <unicode hex="1E9E"/>
  <outline>
    <contour>
      <point x="178" y="985" type="line" smooth="yes"/>
      <point x="178" y="1264"/>
      <point x="563" y="1510"/>
      <point x="979" y="1510" type="qcurve" smooth="yes"/>
      <point x="1531" y="1510"/>
      <point x="1829" y="1347"/>
      <point x="1829" y="1244" type="qcurve" smooth="yes"/>
      <point x="1829" y="1142"/>
      <point x="1603" y="988"/>
      <point x="1326" y="931" type="qcurve" smooth="yes"/>
      <point x="1209" y="907"/>
      <point x="1160" y="892"/>
      <point x="1160" y="878" type="qcurve" smooth="yes"/>
      <point x="1160" y="865"/>
      <point x="1221" y="844"/>
      <point x="1422" y="778" type="qcurve" smooth="yes"/>
      <point x="1972" y="597"/>
      <point x="2179" y="419"/>
      <point x="2179" y="303" type="qcurve" smooth="yes"/>
      <point x="2179" y="185"/>
      <point x="1886" y="-30"/>
      <point x="1544" y="-30" type="qcurve" smooth="yes"/>
      <point x="1194" y="-30"/>
      <point x="875" y="152"/>
      <point x="875" y="338" type="qcurve" smooth="yes"/>
      <point x="875" y="350" type="line"/>
      <point x="1078" y="350" type="line"/>
      <point x="1078" y="338" type="line" smooth="yes"/>
      <point x="1078" y="238"/>
      <point x="1203" y="135"/>
      <point x="1339" y="135" type="qcurve" smooth="yes"/>
      <point x="1444" y="135"/>
      <point x="1582" y="241"/>
      <point x="1582" y="330" type="qcurve" smooth="yes"/>
      <point x="1582" y="427"/>
      <point x="1450" y="521"/>
      <point x="1279" y="584" type="qcurve" smooth="yes"/>
      <point x="1051" y="668"/>
      <point x="934" y="760"/>
      <point x="934" y="831" type="qcurve" smooth="yes"/>
      <point x="934" y="904"/>
      <point x="1008" y="989"/>
      <point x="1102" y="1056" type="qcurve" smooth="yes"/>
      <point x="1172" y="1106"/>
      <point x="1234" y="1172"/>
      <point x="1234" y="1229" type="qcurve" smooth="yes"/>
      <point x="1234" y="1284"/>
      <point x="1132" y="1348"/>
      <point x="1027" y="1348" type="qcurve" smooth="yes"/>
      <point x="906" y="1348"/>
      <point x="780" y="1198"/>
      <point x="780" y="1036" type="qcurve" smooth="yes"/>
      <point x="780" y="432" type="line" smooth="yes"/>
      <point x="780" y="195"/>
      <point x="586" y="-16"/>
      <point x="278" y="-16" type="qcurve" smooth="yes"/>
      <point x="205" y="-16"/>
      <point x="28" y="-14"/>
      <point x="15" y="-12" type="qcurve"/>
      <point x="13" y="172" type="line"/>
      <point x="22" y="169"/>
      <point x="41" y="167"/>
      <point x="51" y="167"/>
      <point x="83" y="167" type="qcurve" smooth="yes"/>
      <point x="120" y="167"/>
      <point x="178" y="264"/>
      <point x="178" y="355" type="qcurve" smooth="yes"/>
    </contour>
  </outline>
</glyph>
<glyph name="dagger" format="2">
  <advance width="1409"/>
  <unicode hex="2020"/>
  <outline>
    <contour>
      <point x="409" y="-74" type="qcurve"/>
      <point x="405" y="8" type="line"/>
      <point x="426" y="748" type="line"/>
      <point x="426" y="852" type="line"/>
      <point x="75" y="852" type="line"/>
      <point x="75" y="1025" type="line"/>
      <point x="422" y="1025" type="line"/>
      <point x="409" y="1508" type="line"/>
      <point x="1000" y="1508" type="line"/>
      <point x="987" y="1025" type="line"/>
      <point x="1334" y="1025" type="line"/>
      <point x="1334" y="852" type="line"/>
      <point x="983" y="852" type="line"/>
      <point x="983" y="748" type="line"/>
      <point x="1004" y="8" type="line"/>
      <point x="1000" y="-74" type="line"/>
      <point x="738" y="-407"/>
      <point x="638" y="-401"/>
    </contour>
  </outline>
</glyph>
<glyph name="peseta" format="2">
  <advance width="2841"/>
  <unicode hex="20A7"/>
  <outline>
    <contour>
      <point x="1145" y="565" type="qcurve"/>
      <point x="511" y="565" type="line"/>
      <point x="511" y="717" type="line"/>
      <point x="945" y="717" type="line"/>
      <point x="1118" y="717"/>
      <point x="1222" y="899"/>
      <point x="1222" y="1009" type="qcurve"/>
      <point x="1222" y="1121"/>
      <point x="1118" y="1304"/>
      <point x="945" y="1304" type="qcurve"/>
      <point x="752" y="1304" type="line"/>
      <point x="752" y="0" type="line"/>
      <point x="167" y="0" type="line"/>
      <point x="167" y="1456" type="line"/>
      <point x="1145" y="1456" type="line"/>
      <point x="1521" y="1456"/>
      <point x="1768" y="1202"/>
      <point x="1768" y="1011" type="qcurve"/>
      <point x="1768" y="819"/>
      <point x="1521" y="565"/>
    </contour>
    <contour>
      <point x="2714" y="1026" type="line"/>
      <point x="2714" y="884" type="line"/>
      <point x="1710" y="884" type="line"/>
      <point x="1710" y="1026" type="line"/>
    </contour>
    <contour>
      <point x="1907" y="1345" type="line"/>
      <point x="2492" y="1345" type="line"/>
      <point x="2492" y="268" type="line"/>
      <point x="2492" y="185"/>
      <point x="2565" y="139"/>
      <point x="2611" y="139" type="qcurve" smooth="yes"/>
      <point x="2659" y="139"/>
      <point x="2719" y="150"/>
      <point x="2763" y="163" type="qcurve"/>
      <point x="2763" y="12" type="line"/>
      <point x="2713" y="-1"/>
      <point x="2506" y="-20"/>
      <point x="2357" y="-20" type="qcurve" smooth="yes"/>
      <point x="2155" y="-20"/>
      <point x="1907" y="167"/>
      <point x="1907" y="369" type="qcurve"/>
    </contour>
  </outline>
</glyph>
<glyph name="dong" format="2">
  <advance width="1824"/>
  <unicode hex="20AB"/>
  <outline>
    <contour>
      <point x="15" y="480" type="qcurve" smooth="yes"/>
      <point x="15" y="492" type="line" smooth="yes"/>
      <point x="15" y="714"/>
      <point x="436" y="992"/>
      <point x="706" y="992" type="qcurve" smooth="yes"/>
      <point x="895" y="992"/>
      <point x="1069" y="925"/>
      <point x="1116" y="868" type="qcurve"/>
      <point x="1116" y="1456" type="line"/>
      <point x="1692" y="1456" type="line"/>
      <point x="1692" y="0" type="line"/>
      <point x="1134" y="0" type="line"/>
      <point x="1126" y="137" type="line"/>
      <point x="1120" y="137" type="line"/>
      <point x="1080" y="72"/>
      <point x="895" y="-20"/>
      <point x="709" y="-20" type="qcurve" smooth="yes"/>
      <point x="436" y="-20"/>
      <point x="15" y="251"/>
    </contour>
    <contour>
      <point x="605" y="480" type="line" smooth="yes"/>
      <point x="605" y="310"/>
      <point x="725" y="132"/>
      <point x="845" y="132" type="qcurve" smooth="yes"/>
      <point x="955" y="132"/>
      <point x="1085" y="242"/>
      <point x="1116" y="312" type="qcurve"/>
      <point x="1116" y="680" type="line"/>
      <point x="1085" y="750"/>
      <point x="955" y="840"/>
      <point x="855" y="840" type="qcurve" smooth="yes"/>
      <point x="725" y="840"/>
      <point x="605" y="672"/>
      <point x="605" y="492" type="qcurve" smooth="yes"/>
    </contour>
    <contour>
      <point x="1821" y="1156" type="line"/>
      <point x="505" y="1156" type="line"/>
      <point x="505" y="1302" type="line"/>
      <point x="1821" y="1302" type="line"/>
    </contour>
    <contour>
      <point x="1771" y="-266" type="line"/>
      <point x="47" y="-266" type="line"/>
      <point x="47" y="-128" type="line"/>
      <point x="1771" y="-128" type="line"/>
    </contour>
  </outline>
</glyph>
<glyph name="uni20B2" format="2">
  <advance width="1840"/>
  <unicode hex="20B2"/>
  <outline>
    <contour>
      <point x="879" y="-190" type="line"/>
      <point x="879" y="57" type="line"/>
      <point x="897" y="71" type="line"/>
      <point x="897" y="708" type="line"/>
      <point x="1027" y="708" type="line"/>
      <point x="1027" y="70" type="line"/>
      <point x="1049" y="60" type="line"/>
      <point x="1049" y="-190" type="line"/>
    </contour>
    <contour>
      <point x="897" y="708" type="line"/>
      <point x="897" y="1392" type="line"/>
      <point x="882" y="1402" type="line"/>
      <point x="882" y="1632" type="line"/>
      <point x="1042" y="1632" type="line"/>
      <point x="1042" y="1402" type="line"/>
      <point x="1027" y="1389" type="line"/>
      <point x="1027" y="708" type="line"/>
    </contour>
    <contour>
      <point x="1795" y="745" type="line"/>
      <point x="1795" y="452" type="line" smooth="yes"/>
      <point x="1795" y="232"/>
      <point x="1375" y="-5"/>
      <point x="971" y="-5" type="qcurve" smooth="yes"/>
      <point x="541" y="-5"/>
      <point x="94" y="278"/>
      <point x="94" y="542" type="qcurve" smooth="yes"/>
      <point x="94" y="897" type="line" smooth="yes"/>
      <point x="94" y="1180"/>
      <point x="536" y="1485"/>
      <point x="961" y="1485" type="qcurve" smooth="yes"/>
      <point x="1345" y="1485"/>
      <point x="1793" y="1264"/>
      <point x="1793" y="1075" type="qcurve" smooth="yes"/>
      <point x="1793" y="1023" type="line"/>
      <point x="1203" y="1021" type="line"/>
      <point x="1203" y="1071" type="line" smooth="yes"/>
      <point x="1203" y="1183"/>
      <point x="1081" y="1328"/>
      <point x="957" y="1328" type="qcurve" smooth="yes"/>
      <point x="827" y="1328"/>
      <point x="688" y="1106"/>
      <point x="688" y="899" type="qcurve" smooth="yes"/>
      <point x="688" y="544" type="line" smooth="yes"/>
      <point x="688" y="356"/>
      <point x="842" y="153"/>
      <point x="985" y="153" type="qcurve" smooth="yes"/>
      <point x="1100" y="153"/>
      <point x="1223" y="298"/>
      <point x="1223" y="433" type="qcurve" smooth="yes"/>
      <point x="1223" y="589" type="line"/>
      <point x="1086" y="589" type="line"/>
      <point x="1086" y="745" type="line"/>
    </contour>
  </outline>
</glyph>
<glyph name="liraTurkish" format="2">
  <advance width="1634"/>
  <unicode hex="20BA"/>
  <outline>
    <contour>
      <point x="6" y="334" type="line"/>
      <point x="6" y="502" type="line"/>
      <point x="1410" y="1057" type="line"/>
      <point x="1404" y="890" type="line"/>
    </contour>
    <contour>
      <point x="180" y="0" type="line"/>
      <point x="180" y="1456" type="line"/>
      <point x="762" y="1456" type="line"/>
      <point x="762" y="153" type="line"/>
      <point x="1049" y="153" type="line" smooth="yes"/>
      <point x="1257" y="153"/>
      <point x="1441" y="364"/>
      <point x="1445" y="521" type="qcurve" smooth="yes"/>
      <point x="1445" y="558" type="line"/>
      <point x="1625" y="558" type="line"/>
      <point x="1625" y="523" type="line" smooth="yes"/>
      <point x="1625" y="298"/>
      <point x="1337" y="0"/>
      <point x="1012" y="0" type="qcurve" smooth="yes"/>
    </contour>
    <contour>
      <point x="6" y="694" type="line"/>
      <point x="6" y="862" type="line"/>
      <point x="1410" y="1417" type="line"/>
      <point x="1404" y="1250" type="line"/>
    </contour>
  </outline>
</glyph>
<glyph name="manat" format="2">
  <advance width="2224"/>
  <unicode hex="20BC"/>
  <outline>
    <contour>
      <point x="2159" y="916" type="qcurve" smooth="yes"/>
      <point x="2159" y="0" type="line"/>
      <point x="1577" y="0" type="line"/>
      <point x="1577" y="851" type="line" smooth="yes"/>
      <point x="1577" y="1078"/>
      <point x="1366" y="1252"/>
      <point x="1112" y="1252" type="qcurve" smooth="yes"/>
      <point x="858" y="1252"/>
      <point x="647" y="1078"/>
      <point x="647" y="851" type="qcurve" smooth="yes"/>
      <point x="647" y="0" type="line"/>
      <point x="65" y="0" type="line"/>
      <point x="65" y="916" type="line" smooth="yes"/>
      <point x="65" y="1157"/>
      <point x="503" y="1416"/>
      <point x="1112" y="1416" type="qcurve" smooth="yes"/>
      <point x="1721" y="1416"/>
      <point x="2159" y="1157"/>
    </contour>
    <contour>
      <point x="1392" y="0" type="line"/>
      <point x="832" y="0" type="line"/>
      <point x="832" y="1582" type="line"/>
      <point x="1392" y="1582" type="line"/>
    </contour>
  </outline>
</glyph>
<glyph name="trademark" format="2">
  <advance width="2621"/>
  <unicode hex="2122"/>
  <outline>
    <contour>
      <point x="24" y="1298" type="line"/>
      <point x="24" y="1456" type="line"/>
      <point x="972" y="1456" type="line"/>
      <point x="972" y="1298" type="line"/>
      <point x="704" y="1298" type="line"/>
      <point x="704" y="700" type="line"/>
      <point x="292" y="700" type="line"/>
      <point x="292" y="1298" type="line"/>
    </contour>
    <contour>
      <point x="1090" y="700" type="line"/>
      <point x="1090" y="1456" type="line"/>
      <point x="1501" y="1456" type="line"/>
      <point x="1757" y="876" type="line"/>
      <point x="1765" y="876" type="line"/>
      <point x="2025" y="1456" type="line"/>
      <point x="2436" y="1456" type="line"/>
      <point x="2436" y="700" type="line"/>
      <point x="2047" y="700" type="line"/>
      <point x="2047" y="1175" type="line"/>
      <point x="2035" y="1175" type="line"/>
      <point x="1829" y="700" type="line"/>
      <point x="1453" y="700" type="line"/>
      <point x="1257" y="1175" type="line"/>
      <point x="1245" y="1175" type="line"/>
      <point x="1245" y="700" type="line"/>
    </contour>
  </outline>
</glyph>
<glyph name="leftanglebracket" format="2">
  <advance width="751"/>
  <unicode hex="27E8"/>
  <outline>
    <contour>
      <point x="12" y="466" type="line"/>
      <point x="12" y="735" type="line"/>
      <point x="644" y="1499" type="line"/>
      <point x="748" y="1410" type="line"/>
      <point x="516" y="604" type="line"/>
      <point x="751" y="-222" type="line"/>
      <point x="644" y="-304" type="line"/>
    </contour>
  </outline>
</glyph>
<glyph name="Yu-dash.case" format="2">
  <advance width="910"/>
  <outline>
    <contour>
      <point x="0" y="672" type="line"/>
      <point x="0" y="830" type="line"/>
      <point x="910" y="830" type="line"/>
      <point x="910" y="672" type="line"/>
    </contour>
  </outline>
</glyph>
<glyph name="acutecomb-stack.case" format="2">
  <anchor x="0.0" y="1456" name="_top"/>
  <anchor x="0" y="1978" name="top"/>
  <anchor x="0" y="1456" name="_topright"/>
  <outline>
    <contour>
      <point x="-49" y="1597" type="line"/>
      <point x="-130" y="1708" type="line"/>
      <point x="154" y="1978" type="line"/>
      <point x="320" y="1732" type="line"/>
    </contour>
  </outline>
</glyph>
<glyph name="acutecomb-stack" format="2">
  <anchor x="0" y="1053" name="_top"/>
  <anchor x="512" y="1998" name="top"/>
  <anchor x="0" y="1561" name="top"/>
  <anchor x="0" y="1052" name="_topright"/>
  <outline>
    <contour>
      <point x="29" y="1203" type="line"/>
      <point x="-190" y="1349" type="line"/>
      <point x="4" y="1648" type="line"/>
      <point x="268" y="1479" type="line"/>
    </contour>
  </outline>
</glyph>
<glyph name="acutecomb.case" format="2">
  <anchor x="0" y="1456" name="_top"/>
  <anchor x="0" y="1998" name="top"/>
  <outline>
    <contour>
      <point x="-116" y="1659" type="line"/>
      <point x="60" y="2076" type="line"/>
      <point x="340" y="1911" type="line"/>
      <point x="11" y="1600" type="line"/>
    </contour>
  </outline>
</glyph>
<glyph name="brevebelowcomb.case" format="2">
  <anchor x="0" y="0" name="_bottom"/>
  <anchor x="0" y="-468" name="bottom"/>
  <outline>
    <contour>
      <point x="291" y="-102" type="qcurve"/>
      <point x="384" y="-172" type="line"/>
      <point x="355" y="-330"/>
      <point x="144" y="-526"/>
      <point x="0" y="-526" type="qcurve" smooth="yes"/>
      <point x="-128" y="-526"/>
      <point x="-345" y="-347"/>
      <point x="-383" y="-171" type="qcurve"/>
      <point x="-283" y="-102" type="line"/>
      <point x="-240" y="-152"/>
      <point x="-95" y="-234"/>
      <point x="0" y="-234" type="qcurve" smooth="yes"/>
      <point x="102" y="-234"/>
      <point x="248" y="-156"/>
    </contour>
  </outline>
</glyph>
<glyph name="caroncomb-stack" format="2">
  <anchor x="0" y="1052" name="_top"/>
  <anchor x="0" y="1528" name="top"/>
  <outline>
    <contour>
      <point x="-106" y="1220" type="line"/>
      <point x="-333" y="1523" type="line"/>
      <point x="-161" y="1523" type="line"/>
      <point x="0" y="1434" type="line"/>
      <point x="165" y="1523" type="line"/>
      <point x="328" y="1523" type="line"/>
      <point x="96" y="1220" type="line"/>
    </contour>
  </outline>
</glyph>
<glyph name="circumflexcomb-stack" format="2">
  <anchor x="0" y="1461" name="top"/>
  <anchor x="0" y="1053" name="_top"/>
  <anchor x="382" y="1220" name="topright"/>
  <outline>
    <contour>
      <point x="136" y="1523" type="line"/>
      <point x="413" y="1220" type="line"/>
      <point x="150" y="1220" type="line"/>
      <point x="0" y="1339" type="line"/>
      <point x="-150" y="1220" type="line"/>
      <point x="-413" y="1220" type="line"/>
      <point x="-136" y="1523" type="line"/>
    </contour>
  </outline>
</glyph>
<glyph name="dblgravecomb-stack" format="2">
  <anchor x="0" y="1052" name="_top"/>
  <anchor x="0" y="1543" name="top"/>
  <outline>
    <contour>
      <point x="151" y="1215" type="line"/>
      <point x="-115" y="1439" type="line"/>
      <point x="113" y="1601" type="line"/>
      <point x="256" y="1294" type="line"/>
    </contour>
    <contour>
      <point x="-187" y="1215" type="line"/>
      <point x="-453" y="1439" type="line"/>
      <point x="-225" y="1601" type="line"/>
      <point x="-82" y="1294" type="line"/>
    </contour>
  </outline>
</glyph>
<glyph name="dblgravecomb" format="2">
  <anchor x="0" y="1052" name="_top"/>
  <anchor x="0" y="1599" name="top"/>
  <outline>
    <contour>
      <point x="154" y="1218" type="line"/>
      <point x="-125" y="1473" type="line"/>
      <point x="111" y="1663" type="line"/>
      <point x="351" y="1377" type="line"/>
    </contour>
    <contour>
      <point x="-276" y="1218" type="line"/>
      <point x="-555" y="1473" type="line"/>
      <point x="-319" y="1663" type="line"/>
      <point x="-79" y="1377" type="line"/>
    </contour>
  </outline>
</glyph>
<glyph name="dieresiscomb-stack.case" format="2">
  <anchor x="0.0" y="1456" name="_top"/>
  <anchor x="0.0" y="1877" name="top"/>
  <outline>
    <contour>
      <point x="-376" y="1734" type="qcurve" smooth="yes"/>
      <point x="-376" y="1804"/>
      <point x="-301" y="1878"/>
      <point x="-230" y="1878" type="qcurve" smooth="yes"/>
      <point x="-163" y="1878"/>
      <point x="-84" y="1799"/>
      <point x="-84" y="1734" type="qcurve" smooth="yes"/>
      <point x="-84" y="1666"/>
      <point x="-158" y="1592"/>
      <point x="-230" y="1592" type="qcurve" smooth="yes"/>
      <point x="-297" y="1592"/>
      <point x="-376" y="1670"/>
    </contour>
    <contour>
      <point x="84" y="1734" type="qcurve" smooth="yes"/>
      <point x="84" y="1804"/>
      <point x="159" y="1878"/>
      <point x="230" y="1878" type="qcurve" smooth="yes"/>
      <point x="297" y="1878"/>
      <point x="376" y="1799"/>
      <point x="376" y="1734" type="qcurve" smooth="yes"/>
      <point x="376" y="1666"/>
      <point x="302" y="1592"/>
      <point x="230" y="1592" type="qcurve" smooth="yes"/>
      <point x="163" y="1592"/>
      <point x="84" y="1670"/>
    </contour>
  </outline>
</glyph>
<glyph name="dieresiscomb-stack" format="2">
  <anchor x="0.0" y="1052" name="_top"/>
  <anchor x="0.0" y="1425" name="top"/>
  <outline>
    <contour>
      <point x="-381" y="1363" type="qcurve" smooth="yes"/>
      <point x="-381" y="1427"/>
      <point x="-301" y="1515"/>
      <point x="-226" y="1515" type="qcurve" smooth="yes"/>
      <point x="-149" y="1515"/>
      <point x="-69" y="1427"/>
      <point x="-69" y="1363" type="qcurve" smooth="yes"/>
      <point x="-69" y="1302"/>
      <point x="-149" y="1215"/>
      <point x="-226" y="1215" type="qcurve" smooth="yes"/>
      <point x="-301" y="1215"/>
      <point x="-381" y="1302"/>
    </contour>
    <contour>
      <point x="69" y="1363" type="qcurve" smooth="yes"/>
      <point x="69" y="1427"/>
      <point x="148" y="1515"/>
      <point x="225" y="1515" type="qcurve" smooth="yes"/>
      <point x="300" y="1515"/>
      <point x="381" y="1427"/>
      <point x="381" y="1363" type="qcurve" smooth="yes"/>
      <point x="381" y="1302"/>
      <point x="300" y="1215"/>
      <point x="225" y="1215" type="qcurve" smooth="yes"/>
      <point x="148" y="1215"/>
      <point x="69" y="1302"/>
    </contour>
  </outline>
</glyph>
<glyph name="dollar.rvrn" format="2">
  <advance width="1990"/>
  <outline>
    <contour>
      <point x="110" y="381" type="qcurve" smooth="yes"/>
      <point x="110" y="392" type="line"/>
      <point x="687" y="392" type="line"/>
      <point x="687" y="381" type="line" smooth="yes"/>
      <point x="687" y="261"/>
      <point x="852" y="143"/>
      <point x="1000" y="143" type="qcurve" smooth="yes"/>
      <point x="1147" y="143"/>
      <point x="1305" y="265"/>
      <point x="1305" y="365" type="qcurve" smooth="yes"/>
      <point x="1305" y="471"/>
      <point x="1160" y="541"/>
      <point x="940" y="593" type="qcurve" smooth="yes"/>
      <point x="517" y="692"/>
      <point x="138" y="946"/>
      <point x="138" y="1099" type="qcurve" smooth="yes"/>
      <point x="138" y="1254"/>
      <point x="578" y="1458"/>
      <point x="990" y="1458" type="qcurve" smooth="yes"/>
      <point x="1403" y="1458"/>
      <point x="1854" y="1235"/>
      <point x="1854" y="1076" type="qcurve" smooth="yes"/>
      <point x="1854" y="1065" type="line"/>
      <point x="1277" y="1065" type="line"/>
      <point x="1277" y="1076" type="line" smooth="yes"/>
      <point x="1277" y="1181"/>
      <point x="1133" y="1308"/>
      <point x="990" y="1308" type="qcurve" smooth="yes"/>
      <point x="848" y="1308"/>
      <point x="713" y="1219"/>
      <point x="713" y="1119" type="qcurve" smooth="yes"/>
      <point x="713" y="1023"/>
      <point x="852" y="955"/>
      <point x="1068" y="902" type="qcurve" smooth="yes"/>
      <point x="1560" y="782"/>
      <point x="1880" y="527"/>
      <point x="1880" y="365" type="qcurve" smooth="yes"/>
      <point x="1880" y="202"/>
      <point x="1421" y="-6"/>
      <point x="1000" y="-6" type="qcurve" smooth="yes"/>
      <point x="578" y="-6"/>
      <point x="110" y="202"/>
    </contour>
    <contour>
      <point x="925" y="-170" type="line"/>
      <point x="925" y="128" type="line"/>
      <point x="1061" y="128" type="line"/>
      <point x="1061" y="80" type="line"/>
      <point x="1075" y="70" type="line"/>
      <point x="1075" y="-170" type="line"/>
    </contour>
    <contour>
      <point x="939" y="1348" type="line"/>
      <point x="939" y="1386" type="line"/>
      <point x="925" y="1396" type="line"/>
      <point x="925" y="1586" type="line"/>
      <point x="1075" y="1586" type="line"/>
      <point x="1075" y="1348" type="line"/>
    </contour>
  </outline>
</glyph>
<glyph name="dotaccentcomb-stack.case" format="2">
  <anchor x="0" y="1456" name="_top"/>
  <anchor x="0" y="1927" name="top"/>
  <outline>
    <contour>
      <point x="-169" y="1767" type="qcurve" smooth="yes"/>
      <point x="-169" y="1836"/>
      <point x="-82" y="1929"/>
      <point x="0" y="1929" type="qcurve" smooth="yes"/>
      <point x="82" y="1929"/>
      <point x="169" y="1836"/>
      <point x="169" y="1767" type="qcurve" smooth="yes"/>
      <point x="169" y="1699"/>
      <point x="82" y="1605"/>
      <point x="0" y="1605" type="qcurve" smooth="yes"/>
      <point x="-82" y="1605"/>
      <point x="-169" y="1699"/>
    </contour>
  </outline>
</glyph>
<glyph name="dotbelowcomb.case" format="2">
  <anchor x="0" y="0" name="_bottom"/>
  <anchor x="0" y="-407" name="bottom"/>
  <outline>
    <contour>
      <point x="-180" y="-311" type="qcurve" smooth="yes"/>
      <point x="-180" y="-237"/>
      <point x="-87" y="-138"/>
      <point x="0" y="-138" type="qcurve" smooth="yes"/>
      <point x="87" y="-138"/>
      <point x="180" y="-237"/>
      <point x="180" y="-311" type="qcurve" smooth="yes"/>
      <point x="180" y="-384"/>
      <point x="87" y="-483"/>
      <point x="0" y="-483" type="qcurve" smooth="yes"/>
      <point x="-87" y="-483"/>
      <point x="-180" y="-384"/>
    </contour>
  </outline>
</glyph>
<glyph name="ghe.bgr" format="2">
  <advance width="1423"/>
  <outline>
    <contour>
      <point x="1343" y="310" type="line"/>
      <point x="927" y="310" type="line"/>
      <point x="927" y="305" type="line" smooth="yes"/>
      <point x="927" y="214"/>
      <point x="803" y="122"/>
      <point x="665" y="122" type="qcurve" smooth="yes"/>
      <point x="519" y="122"/>
      <point x="446" y="175"/>
      <point x="446" y="210" type="qcurve" smooth="yes"/>
      <point x="446" y="245"/>
      <point x="532" y="291"/>
      <point x="784" y="335" type="qcurve" smooth="yes"/>
      <point x="1026" y="379"/>
      <point x="1318" y="580"/>
      <point x="1318" y="726" type="qcurve" smooth="yes"/>
      <point x="1318" y="884"/>
      <point x="1000" y="1082"/>
      <point x="723" y="1082" type="qcurve" smooth="yes"/>
      <point x="438" y="1082"/>
      <point x="124" y="911"/>
      <point x="124" y="765" type="qcurve" smooth="yes"/>
      <point x="124" y="760" type="line"/>
      <point x="538" y="760" type="line"/>
      <point x="538" y="769" type="line" smooth="yes"/>
      <point x="538" y="844"/>
      <point x="623" y="930"/>
      <point x="746" y="930" type="qcurve" smooth="yes"/>
      <point x="862" y="930"/>
      <point x="954" y="879"/>
      <point x="954" y="844" type="qcurve" smooth="yes"/>
      <point x="954" y="809"/>
      <point x="888" y="768"/>
      <point x="603" y="720" type="qcurve" smooth="yes"/>
      <point x="346" y="674"/>
      <point x="80" y="508"/>
      <point x="80" y="352" type="qcurve" smooth="yes"/>
      <point x="80" y="178"/>
      <point x="370" y="-30"/>
      <point x="713" y="-30" type="qcurve" smooth="yes"/>
      <point x="1022" y="-30"/>
      <point x="1343" y="153"/>
      <point x="1343" y="305" type="qcurve" smooth="yes"/>
    </contour>
  </outline>
</glyph>
<glyph name="gravecomb-stack" format="2">
  <anchor x="0" y="1561" name="top"/>
  <anchor x="0" y="1052" name="_top"/>
  <anchor x="0" y="1052" name="_topright"/>
  <outline>
    <contour>
      <point x="-80" y="1217" type="line"/>
      <point x="-301" y="1465" type="line"/>
      <point x="-14" y="1648" type="line"/>
      <point x="162" y="1377" type="line"/>
    </contour>
  </outline>
</glyph>
<glyph name="hard.bgr" format="2">
  <advance width="2060"/>
  <outline>
    <contour>
      <point x="320" y="452" type="qcurve" smooth="yes"/>
      <point x="320" y="907" type="line"/>
      <point x="30" y="907" type="line"/>
      <point x="30" y="1052" type="line"/>
      <point x="906" y="1052" type="line"/>
      <point x="906" y="351" type="line" smooth="yes"/>
      <point x="906" y="252"/>
      <point x="1018" y="123"/>
      <point x="1158" y="123" type="qcurve" smooth="yes"/>
      <point x="1300" y="123"/>
      <point x="1414" y="252"/>
      <point x="1414" y="351" type="qcurve" smooth="yes"/>
      <point x="1414" y="447"/>
      <point x="1309" y="573"/>
      <point x="1178" y="573" type="qcurve" smooth="yes"/>
      <point x="626" y="573" type="line"/>
      <point x="626" y="718" type="line"/>
      <point x="1278" y="718" type="line" smooth="yes"/>
      <point x="1681" y="718"/>
      <point x="2000" y="521"/>
      <point x="2000" y="351" type="qcurve" smooth="yes"/>
      <point x="2000" y="177"/>
      <point x="1671" y="-30"/>
      <point x="1258" y="-30" type="qcurve" smooth="yes"/>
      <point x="742" y="-30"/>
      <point x="320" y="175"/>
    </contour>
  </outline>
</glyph>
<glyph name="hookabovecomb-stack" format="2">
  <anchor x="0.0" y="1052" name="_top"/>
  <anchor x="0.0" y="1657" name="top"/>
  <anchor x="0" y="1052" name="_topright"/>
  <outline>
    <contour>
      <point x="-71" y="1220" type="line"/>
      <point x="-71" y="1261" type="line" smooth="yes"/>
      <point x="-71" y="1313"/>
      <point x="-26" y="1369"/>
      <point x="24" y="1380" type="qcurve" smooth="yes"/>
      <point x="61" y="1388"/>
      <point x="82" y="1412"/>
      <point x="82" y="1431" type="qcurve" smooth="yes"/>
      <point x="82" y="1450"/>
      <point x="29" y="1483"/>
      <point x="-21" y="1483" type="qcurve" smooth="yes"/>
      <point x="-73" y="1483"/>
      <point x="-153" y="1458"/>
      <point x="-167" y="1452" type="qcurve"/>
      <point x="-229" y="1597" type="line"/>
      <point x="-194" y="1616"/>
      <point x="-45" y="1657"/>
      <point x="37" y="1657" type="qcurve" smooth="yes"/>
      <point x="157" y="1657"/>
      <point x="290" y="1543"/>
      <point x="290" y="1448" type="qcurve" smooth="yes"/>
      <point x="290" y="1371"/>
      <point x="195" y="1269"/>
      <point x="52" y="1258" type="qcurve"/>
      <point x="52" y="1220" type="line"/>
    </contour>
  </outline>
</glyph>
<glyph name="hookabovecomb.case" format="2">
  <anchor x="0" y="1456" name="_top"/>
  <anchor x="0" y="2072" name="top"/>
  <outline>
    <contour>
      <point x="-137" y="1600" type="line"/>
      <point x="-137" y="1641" type="line" smooth="yes"/>
      <point x="-137" y="1693"/>
      <point x="-95" y="1749"/>
      <point x="-45" y="1760" type="qcurve" smooth="yes"/>
      <point x="-8" y="1768"/>
      <point x="16" y="1795"/>
      <point x="16" y="1818" type="qcurve" smooth="yes"/>
      <point x="16" y="1843"/>
      <point x="-37" y="1876"/>
      <point x="-87" y="1876" type="qcurve" smooth="yes"/>
      <point x="-139" y="1876"/>
      <point x="-219" y="1851"/>
      <point x="-233" y="1845" type="qcurve"/>
      <point x="-295" y="2010" type="line"/>
      <point x="-260" y="2029"/>
      <point x="-111" y="2071"/>
      <point x="-20" y="2071" type="qcurve" smooth="yes"/>
      <point x="123" y="2071"/>
      <point x="255" y="1963"/>
      <point x="255" y="1848" type="qcurve" smooth="yes"/>
      <point x="255" y="1771"/>
      <point x="129" y="1649"/>
      <point x="-14" y="1638" type="qcurve"/>
      <point x="-14" y="1600" type="line"/>
    </contour>
  </outline>
</glyph>
<glyph name="hookcomb-stack.case" format="2">
  <anchor x="0" y="1456" name="_top"/>
  <anchor x="0" y="2014" name="top"/>
  <anchor x="0" y="1456" name="_topright"/>
  <outline>
    <contour>
      <point x="-80" y="1600" type="line"/>
      <point x="-80" y="1647" type="line" smooth="yes"/>
      <point x="-80" y="1686"/>
      <point x="-28" y="1727"/>
      <point x="39" y="1739" type="qcurve" smooth="yes"/>
      <point x="73" y="1745"/>
      <point x="105" y="1773"/>
      <point x="105" y="1795" type="qcurve" smooth="yes"/>
      <point x="105" y="1820"/>
      <point x="63" y="1844"/>
      <point x="24" y="1844" type="qcurve" smooth="yes"/>
      <point x="-32" y="1844"/>
      <point x="-114" y="1826"/>
      <point x="-131" y="1815" type="qcurve"/>
      <point x="-188" y="1962" type="line"/>
      <point x="-157" y="1979"/>
      <point x="-21" y="2014"/>
      <point x="53" y="2014" type="qcurve" smooth="yes"/>
      <point x="181" y="2014"/>
      <point x="311" y="1915"/>
      <point x="311" y="1831" type="qcurve" smooth="yes"/>
      <point x="311" y="1744"/>
      <point x="198" y="1653"/>
      <point x="69" y="1643" type="qcurve"/>
      <point x="69" y="1600" type="line"/>
    </contour>
  </outline>
</glyph>
<glyph name="horncomb.case" format="2">
  <anchor x="0" y="1456" name="_topright"/>
  <anchor x="0" y="1724" name="topright"/>
  <outline>
    <contour>
      <point x="0" y="1456" type="line"/>
      <point x="84" y="1456" type="line" smooth="yes"/>
      <point x="132" y="1456"/>
      <point x="174" y="1490"/>
      <point x="174" y="1542" type="qcurve" smooth="yes"/>
      <point x="174" y="1588"/>
      <point x="139" y="1690"/>
      <point x="123" y="1724" type="qcurve"/>
      <point x="427" y="1724" type="line"/>
      <point x="447" y="1691"/>
      <point x="500" y="1561"/>
      <point x="500" y="1497" type="qcurve" smooth="yes"/>
      <point x="500" y="1409"/>
      <point x="345" y="1324"/>
      <point x="219" y="1324" type="qcurve" smooth="yes"/>
      <point x="98" y="1324"/>
      <point x="26" y="1336"/>
      <point x="0" y="1345" type="qcurve"/>
    </contour>
  </outline>
</glyph>
<glyph name="hryvnia.rvrn" format="2">
  <advance width="1724"/>
  <outline>
    <contour>
      <point x="78" y="273" type="qcurve" smooth="yes"/>
      <point x="78" y="433"/>
      <point x="371" y="660"/>
      <point x="702" y="822" type="qcurve" smooth="yes"/>
      <point x="880" y="909" type="line" smooth="yes"/>
      <point x="1000" y="968"/>
      <point x="1126" y="1054"/>
      <point x="1126" y="1146" type="qcurve" smooth="yes"/>
      <point x="1126" y="1220"/>
      <point x="1002" y="1328"/>
      <point x="886" y="1328" type="qcurve" smooth="yes"/>
      <point x="757" y="1328"/>
      <point x="635" y="1230"/>
      <point x="631" y="1172" type="qcurve" smooth="yes"/>
      <point x="629" y="1146" type="line"/>
      <point x="107" y="1146" type="line"/>
      <point x="108" y="1172" type="line" smooth="yes"/>
      <point x="114" y="1325"/>
      <point x="427" y="1485"/>
      <point x="889" y="1486" type="qcurve" smooth="yes"/>
      <point x="1351" y="1487"/>
      <point x="1649" y="1339"/>
      <point x="1649" y="1212" type="qcurve" smooth="yes"/>
      <point x="1649" y="1077"/>
      <point x="1325" y="841"/>
      <point x="1027" y="692" type="qcurve" smooth="yes"/>
      <point x="831" y="594" type="line" smooth="yes"/>
      <point x="727" y="542"/>
      <point x="602" y="449"/>
      <point x="602" y="348" type="qcurve" smooth="yes"/>
      <point x="602" y="245"/>
      <point x="742" y="128"/>
      <point x="873" y="128" type="qcurve" smooth="yes"/>
      <point x="1007" y="128"/>
      <point x="1155" y="241"/>
      <point x="1162" y="307" type="qcurve" smooth="yes"/>
      <point x="1163" y="326" type="line"/>
      <point x="1690" y="326" type="line"/>
      <point x="1689" y="313" type="line" smooth="yes"/>
      <point x="1676" y="143"/>
      <point x="1306" y="-30"/>
      <point x="873" y="-30" type="qcurve" smooth="yes"/>
      <point x="440" y="-30"/>
      <point x="78" y="134"/>
    </contour>
    <contour>
      <point x="-10" y="681" type="line"/>
      <point x="-10" y="826" type="line"/>
      <point x="1733" y="826" type="line"/>
      <point x="1733" y="681" type="line"/>
    </contour>
  </outline>
</glyph>
<glyph name="hungarumlautcomb-stack.case" format="2">
  <anchor x="0" y="1456" name="_top"/>
  <anchor x="0" y="2027" name="top"/>
  <outline>
    <contour>
      <point x="-263" y="1654" type="line"/>
      <point x="-93" y="2026" type="line"/>
      <point x="155" y="1859" type="line"/>
      <point x="-136" y="1595" type="line"/>
    </contour>
    <contour>
      <point x="71" y="1654" type="line"/>
      <point x="241" y="2026" type="line"/>
      <point x="489" y="1859" type="line"/>
      <point x="198" y="1595" type="line"/>
    </contour>
  </outline>
</glyph>
<glyph name="hungarumlautcomb.case" format="2">
  <anchor x="0" y="1456" name="_top"/>
  <anchor x="0" y="1998" name="top"/>
  <outline>
    <contour>
      <point x="-262" y="1660" type="line"/>
      <point x="-100" y="2090" type="line"/>
      <point x="217" y="1910" type="line"/>
      <point x="-136" y="1600" type="line"/>
    </contour>
    <contour>
      <point x="72" y="1660" type="line"/>
      <point x="234" y="2090" type="line"/>
      <point x="551" y="1910" type="line"/>
      <point x="198" y="1600" type="line"/>
    </contour>
  </outline>
</glyph>
<glyph name="six.prop" format="2">
  <advance width="2036"/>
  <outline>
    <contour>
      <point x="80" y="614" type="qcurve" smooth="yes"/>
      <point x="80" y="644" type="line" smooth="yes"/>
      <point x="80" y="1024"/>
      <point x="992" y="1486"/>
      <point x="1498" y="1486" type="qcurve" smooth="yes"/>
      <point x="1792" y="1486" type="line"/>
      <point x="1792" y="1328" type="line"/>
      <point x="1498" y="1328" type="line" smooth="yes"/>
      <point x="1092" y="1328"/>
      <point x="768" y="1004"/>
      <point x="768" y="654" type="qcurve" smooth="yes"/>
      <point x="768" y="604" type="line" smooth="yes"/>
      <point x="768" y="344"/>
      <point x="952" y="128"/>
      <point x="1092" y="128" type="qcurve" smooth="yes"/>
      <point x="1232" y="128"/>
      <point x="1386" y="304"/>
      <point x="1386" y="464" type="qcurve" smooth="yes"/>
      <point x="1386" y="624"/>
      <point x="1232" y="798"/>
      <point x="1092" y="798" type="qcurve" smooth="yes"/>
      <point x="962" y="798"/>
      <point x="762" y="624"/>
      <point x="762" y="464" type="qcurve"/>
      <point x="692" y="464" type="line"/>
      <point x="692" y="684"/>
      <point x="1040" y="956"/>
      <point x="1331" y="956" type="qcurve" smooth="yes"/>
      <point x="1621" y="956"/>
      <point x="1976" y="684"/>
      <point x="1976" y="464" type="qcurve" smooth="yes"/>
      <point x="1976" y="244"/>
      <point x="1578" y="-30"/>
      <point x="1105" y="-30" type="qcurve" smooth="yes"/>
      <point x="632" y="-30"/>
      <point x="80" y="274"/>
    </contour>
  </outline>
</glyph>
<glyph name="tildecomb-stack" format="2">
  <anchor x="0.0" y="1482" name="top"/>
  <anchor x="0.0" y="1052" name="_top"/>
  <outline>
    <contour>
      <point x="-378" y="1349" type="line"/>
      <point x="-342" y="1434"/>
      <point x="-207" y="1539"/>
      <point x="-143" y="1539" type="qcurve" smooth="yes"/>
      <point x="-81" y="1539"/>
      <point x="8" y="1503"/>
      <point x="42" y="1483" type="qcurve" smooth="yes"/>
      <point x="76" y="1463"/>
      <point x="132" y="1429"/>
      <point x="171" y="1429" type="qcurve" smooth="yes"/>
      <point x="204" y="1429"/>
      <point x="275" y="1460"/>
      <point x="298" y="1486" type="qcurve"/>
      <point x="378" y="1388" type="line"/>
      <point x="331" y="1298"/>
      <point x="212" y="1213"/>
      <point x="150" y="1213" type="qcurve" smooth="yes"/>
      <point x="88" y="1213"/>
      <point x="1" y="1243"/>
      <point x="-32" y="1263" type="qcurve" smooth="yes"/>
      <point x="-65" y="1283"/>
      <point x="-139" y="1326"/>
      <point x="-177" y="1326" type="qcurve" smooth="yes"/>
      <point x="-213" y="1326"/>
      <point x="-277" y="1296"/>
      <point x="-302" y="1259" type="qcurve"/>
    </contour>
  </outline>
</glyph>
<glyph name="tildecomb.case" format="2">
  <anchor x="0" y="1456" name="_top"/>
  <anchor x="0" y="1892" name="top"/>
  <outline>
    <contour>
      <point x="-417" y="1714" type="line"/>
      <point x="-376" y="1799"/>
      <point x="-223" y="1910"/>
      <point x="-150" y="1910" type="qcurve" smooth="yes"/>
      <point x="-80" y="1910"/>
      <point x="21" y="1874"/>
      <point x="60" y="1854" type="qcurve" smooth="yes"/>
      <point x="98" y="1834"/>
      <point x="162" y="1800"/>
      <point x="206" y="1800" type="qcurve" smooth="yes"/>
      <point x="244" y="1800"/>
      <point x="324" y="1831"/>
      <point x="350" y="1857" type="qcurve"/>
      <point x="421" y="1771" type="line"/>
      <point x="383" y="1675"/>
      <point x="253" y="1584"/>
      <point x="182" y="1584" type="qcurve" smooth="yes"/>
      <point x="112" y="1584"/>
      <point x="13" y="1614"/>
      <point x="-24" y="1634" type="qcurve" smooth="yes"/>
      <point x="-62" y="1654"/>
      <point x="-146" y="1697"/>
      <point x="-189" y="1697" type="qcurve" smooth="yes"/>
      <point x="-230" y="1697"/>
      <point x="-307" y="1665"/>
      <point x="-339" y="1630" type="qcurve"/>
    </contour>
  </outline>
</glyph>
<glyph name="yu-dash" format="2">
  <advance width="396"/>
  <outline>
    <contour>
      <point x="0" y="465" type="line"/>
      <point x="0" y="610" type="line"/>
      <point x="796" y="610" type="line"/>
      <point x="796" y="465" type="line"/>
    </contour>
  </outline>
</glyph>
<glyph name="zero.prop" format="2">
  <advance width="1956"/>
  <outline>
    <contour>
      <point x="110" y="599" type="qcurve" smooth="yes"/>
      <point x="110" y="895" type="line" smooth="yes"/>
      <point x="110" y="1161"/>
      <point x="570" y="1486"/>
      <point x="978" y="1486" type="qcurve" smooth="yes"/>
      <point x="1382" y="1486"/>
      <point x="1846" y="1161"/>
      <point x="1846" y="895" type="qcurve" smooth="yes"/>
      <point x="1846" y="599" type="line" smooth="yes"/>
      <point x="1846" y="317"/>
      <point x="1382" y="-30"/>
      <point x="978" y="-30" type="qcurve" smooth="yes"/>
      <point x="570" y="-30"/>
      <point x="110" y="317"/>
    </contour>
    <contour>
      <point x="704" y="450" type="line" smooth="yes"/>
      <point x="704" y="310"/>
      <point x="838" y="128"/>
      <point x="978" y="128" type="qcurve" smooth="yes"/>
      <point x="1118" y="128"/>
      <point x="1252" y="310"/>
      <point x="1252" y="450" type="qcurve" smooth="yes"/>
      <point x="1252" y="1006" type="line" smooth="yes"/>
      <point x="1252" y="1146"/>
      <point x="1118" y="1328"/>
      <point x="978" y="1328" type="qcurve" smooth="yes"/>
      <point x="838" y="1328"/>
      <point x="704" y="1146"/>
      <point x="704" y="1006" type="qcurve" smooth="yes"/>
    </contour>
  </outline>
</glyph>
<glyph name="zhe.bgr" format="2">
  <advance width="2730"/>
  <outline>
    <contour>
      <point x="-16" y="0" type="line"/>
      <point x="609" y="860" type="line"/>
      <point x="945" y="488" type="line"/>
      <point x="598" y="0" type="line"/>
    </contour>
    <contour>
      <point x="1070" y="0" type="line"/>
      <point x="1070" y="1536" type="line"/>
      <point x="1656" y="1536" type="line"/>
      <point x="1656" y="0" type="line"/>
    </contour>
    <contour>
      <point x="2128" y="0" type="line"/>
      <point x="1783" y="479" type="line"/>
      <point x="2118" y="846" type="line"/>
      <point x="2746" y="0" type="line"/>
    </contour>
    <contour>
      <point x="329" y="1052" type="line"/>
      <point x="540" y="1052" type="line"/>
      <point x="1155" y="374" type="line"/>
      <point x="1155" y="158" type="line"/>
    </contour>
    <contour>
      <point x="2397" y="1052" type="line"/>
      <point x="1570" y="157" type="line"/>
      <point x="1570" y="372" type="line"/>
      <point x="2186" y="1052" type="line"/>
    </contour>
  </outline>
</glyph>
